<svg id="Layer_1" data-name="Layer 1" xmlns="http://www.w3.org/2000/svg" xmlns:xlink="http://www.w3.org/1999/xlink" viewBox="0 0 1920 1080">
  <defs>
    <style>
      .cls-1 {
        fill: none;
      }

      .cls-2 {
        clip-path: url(#clip-path);
      }

      .cls-3 {
        fill: url(#linear-gradient);
      }

      .cls-4 {
        fill: #04724f;
      }
    </style>
    <clipPath id="clip-path">
      <rect class="cls-1" x="-2" y="1.15" width="1924.43" height="1087.85"/>
    </clipPath>
    <linearGradient id="linear-gradient" x1="862.38" y1="1892.19" x2="1092.76" y2="-88.73" gradientTransform="translate(-58.9 58.3) rotate(-3.42)" gradientUnits="userSpaceOnUse">
      <stop offset="0.24" stop-color="green"/>
      <stop offset="0.32" stop-color="#005700"/>
      <stop offset="0.42" stop-color="#002800"/>
      <stop offset="0.5" stop-color="#000b00"/>
      <stop offset="0.54"/>
    </linearGradient>
  </defs>
  <g id="Main">
    <g class="cls-2">
      <g id="layer_2">
        <path class="cls-3" d="M2093.54,1082.49c-2.77-5.21-7.52-2.38-12.83-5.64.35-.12,14-17.35,14-18.47-15.12-1.18-35.29,15.51-55.26,31.95-2.71-.62-3.78-1.9-3.15-3.86,5.32-.73,15.37-5.63,10.65-12.36-1.87,2.77-3.79-.61-5.8-2.39-3.33,7-13.5,6-21.16,3.55,2.22-.79,5.27-.49,9.45,1.53-3.59-6,14.32-7,3.17-13.6,4.58-2,8.28-3.85,10.35-7.12l-.42-.24c2.71-4.31,2.31-9.33,7.17-11.34q-7.12-.46-5.91-4.25a17.85,17.85,0,0,0,2.83-.67c4.66.1,2.51.08,1.42-.5a17,17,0,0,0,5.36-3.24l.2-.06-.08,0c2.14-2.09,3.07-4.77.92-7.84-1.86,2.77-3.79-.61-5.8-2.38a8.44,8.44,0,0,1-1.4,2c.76-2.09,3.39-4.47,6.88-8.6-8.6-.68-5.06,4.3-10.36,4.3-3.18,0,.67-5.85,3.28-9.89a12.67,12.67,0,0,0,3.41-3.48c-19.91-10.9,7-8.61-3.8-16.63,23,.31-2.06.75,14.45-3.67-10.59-7.19-7-8,.52-16.85-8.6-.67-5.06,4.3-10.36,4.3-4.58,0,5.44-12.16,5.3-13.52-8,4.94-1.93-3.17-9.14-.28q6.92,6-2.19,10c-.63-10.6-18.24,12.43-22.11,14-3.43-4-8.24-5.6-7.26-9.1-5.39,1.43-11.55,8-17.86,7.31,1.34-2.67,1.73-4.65.48-5.27-1.3,1.59-2.4,3-3.41,4.4a11.14,11.14,0,0,1-1-.55c4-2.64,1.53-6.19,7.39-4.34-.43-2.39-2.27-3.09-5.51-2.14,1.31-.61,7.51-3.9,8.29-4.06a56.66,56.66,0,0,1-18.64-8.64c3.25-3.09,25.5-28.35,20.38-30.89-8.6,10.58-9.46,16-22.22,14.86,2.61-1.36,5-2.69,5.46-3.88-.3,0-.6,0-.89,0q6.29-3.81-.52-8.63c-5.57,6.12-5.71,5.34-15.31,5.35,0-.1,0-.18,0-.27a72.76,72.76,0,0,1,6.88-2.45c-1.3-.5-3.88-.28-5.93-.31,3.19-4,12.73-1.08,3.34-3.95,5.51-2.88,12.6-6.77,13.64-8.2-4.83.29-6.23-.38-6.8-1.66.63-.21,1.27-.42,1.91-.61-1.66-1.13-2-4.19-1.31-7.74,2.32-.31,3.88-1.46,9.56-4.4a39.49,39.49,0,0,1-7.73-1.64,20.56,20.56,0,0,1,5.43-7.94c2.51-1.31,4.76-2.59,5.23-3.75-.31,0-.6,0-.9,0q6.29-3.81-.52-8.63c-5.56,6.12-5.71,5.34-15.31,5.35,0-9,18-2.71,1-8,0-.13,0-.26,0-.4,3-.9,14.22-2.54,11.54-5a22.36,22.36,0,0,1-11.07,2.08,8.12,8.12,0,0,1,1-2.45c3.39-1.12,6.92-2.65,10.48-3.7-4.28-2.91.5-18.74,7.06-22.48-9.24-3.63-10.71-1-19.61,1.76-1-2.13,5.37-6.56,7.21-6.21-4.16-.8-9.08,1.36-13.17,2.2,1-.88,9.13-12.62,10.28-12.41a6.91,6.91,0,0,1,2.36,5.46c2.89-4.28-1.14-11.64,8.37-14.43-4.34-7.27-8.44,3.84-9.25-9.71a14.22,14.22,0,0,0,0,13.07c-5.45-6-21.41,9.68-32.15,14.17l-.85.35c-5.52,2-9.46.72-9.51-8.83,3.77,3.32,18,3.7,19.93-2.18-5.8-.3-16.14.81-18.09-2.4,5.12-4,3.12-1.15,5.52-6,9.94,6.23,7-5,18.71-1.28q-.51-5.48-6.09-8A50.19,50.19,0,0,0,1975,814.7q-7.77,5-13.68-1.55c7.15-1,9.81-3.15,15.91-.87-3-15.1-18.63,10.31-14.3-9.52-10.51,3.19-5.9,9.65-20.68,11.76,7,5.86-6.49,17.16-16.06,16.23,1.59-.49,2.44-1.72,1.94-4.43-.21-1.12-3.55-1-5.92-2.26a19.58,19.58,0,0,0,4.23-1.7,16.45,16.45,0,0,1,1.85.88c-.27-.6-.59-1.17-.88-1.76.35-.61.08-1.3-1.07-2.09-.44-.85-.91-1.69-1.38-2.52a63,63,0,0,1,15.15.42q-1.29-4.14-6.55-3.21c1.13-1.43,14.73-7,13-10.5a27.3,27.3,0,0,1-8.19,1.84c2.43-5.32,2-12.21,4.57-17.07-.32,3.09.58,4.28,2.72,3.56-.27-4.38,1.49-9.6,6-11.42-11.12-3.52-5.52,3.07-15.07,10.24,4.71-21.19-10.77,6.55-11.34,9.7a8.15,8.15,0,0,1-2.23-1.56,2.09,2.09,0,0,0,1.82-.42c-5.76-7.53.13-6.15-1-14.31,6,.38,13.11,2.68,11.85-4-.31-1.64-7.34-.65-8.17-5.14a16.43,16.43,0,0,1,8.34,2,95.9,95.9,0,0,0-5.39-9.89c20.73-.3,15.33-16.09,20.06-25q-.49,4.64,2.71,3.56c-.26-4.38,1.49-9.59,6-11.42-11.13-3.52-5.53,3.07-15.08,10.25,4.72-21.19-10.77,6.54-11.33,9.69a7.31,7.31,0,0,1-4.13-4.59c-4.59,1.41,3.53,4-4.43,4q4.54,3,3.06,7.86c-11.28-12-7.75-4.89-9.22-10.87a88.83,88.83,0,0,0-12.71,1.94c-1.51-3.63,13.25-16.66,17.52-19.68-13.23-6.44-13.85,25.38-30.48,17.73,8.88-5.12,14.46-9.78,3.11-13-.15-.32-.31-.67-.5-1,2.72-1.26,12.46-1.63,14.2-2.57-1.51-1.92-3.64-2.31-6.4-1.15q3.79-6.25,12-5.86-4.54-2.14.07-5.3c-2.68,0-4.69,0-6.19.08a11.65,11.65,0,0,0-2.1-.28,2.25,2.25,0,0,1-.08.33c-2.75.08-1.53.15,0,.15-1.11,4.42-8.59,12.7-14.26,13a9.73,9.73,0,0,1-4-2.21,6.84,6.84,0,0,1,5.78-.63,8.36,8.36,0,0,0-7.25-1.19l-.1-.14a.25.25,0,0,1,0-.07c8.66-.56,8.6-6.51,5.73-12.63,0-.46-.1-.74-.39-.78a39.67,39.67,0,0,0-3.07-5c5.12-2.09,7.38-1.82,11.36-.76.76-3-3.61-14.3-5.89-17.29,8-.59,12.47,4.48,7.5-5.21q-4.72,2.1-.07,3.64c-2,.2-8.5-2.35-7-5.51a6.68,6.68,0,0,1,6.67-1.24,8.4,8.4,0,0,0-7.48-1.13c2.52-3.81,12.12-22.45-.32-8.74q1.77-7.38-6.53-4.4a20,20,0,0,0,5.85-10.59c-3.77,6.49-8.38,12.81-12.26,19.5-3.51-3.52-5.35-5.81.15-2,0-2.59-2.53-14.43-7.13-12.66a11.6,11.6,0,0,1,2.5,1.57c-13.1.78.55-2.09-7.77-6.73-2.94,8.36-2.08,4.59-4-5.66,10.85,6.06,9.72,3,16.74-9.53-2.56,1.23-13.87,14.23-25.42,7.64,2.83-3,10.46-17.34,10.07-16.87-2.39,2.87-7.85,3-11.53-.22,15.13-7.63-3.86-11.08-8.33-15.63,6.44-1.31-2.13-16.71-2.82-17a15.45,15.45,0,0,1-5.1,7.44c-1.6-1.67-.62-12.26-.86-14.3-12.79.76-4.28,11.5-2,16.39q-3.27,2.81-6.56-3.56c2,9.43,1.65,9.57,4.55,17.49-7.72,0-10.32-5-11.89-10q-3,3.87-8.47,3.56a9,9,0,0,0,6.82,2.18c-6,6.42-9.11,9.52,3.22,16.25-3.49,1.88-13.79,2.28-14.7,3.24,8.86,5.92-.22,12.48,9.77,20.08-3.26,1.76-6.34-.49-10-1-.46,1.24-.12,3.11.46,5.27a12.38,12.38,0,0,1-3,.19,8.68,8.68,0,0,0,3.62,1.88c.27.94.56,1.91.83,2.89-3.24,3.71-4.41,6.41.09,10.1-1.13,1.93-3.41,3.3-7.57,3.67a11.79,11.79,0,0,1,3.23,2.07c-2.46.35-4.47.66-4.85,1.06,3.54,2.37,4.21,4.84,4.38,7.44-8.21-4.26-25.49-18.12-31-20.54-2,2,7.27,7.43,8.84,8.18-14.29,11.73,9.72,16.8-.25,23.44,2.32.13,13.54.43,17.68,3.46a33.92,33.92,0,0,0,1,4c-12.51-.15-9,2.93-16.56.34q7.39,5,2.74,7.31c-6.72-5.48-12.87-20.27-24.38-19.08,11.44,7.71,23.1,14.78,5.61,7.71-2,7.09,17.39,5.38,12.66,17.42,2.16-.47,15.52,10.3,15.25,11.26-.17.62-1,.92-2.11,1-8.87-5.47-23.06-16.65-28-18.8-2,2,7.27,7.43,8.84,8.18-.49.4-.93.79-1.33,1.18-4.19-.33-8.13-1.19-12.59-1.22,1.06,6.15,3.82,8.32,9.93,10.33,1.14,2.46,3.46,4.57,4.93,6.56-.64,0-1.44,0-2.56.14,3.22,6-1.33,5.73,1.86,6.09-.16.12-.31.24-.49.36.68,0,2.16.1,4,.23a8.39,8.39,0,0,1-6.15,5c5.19-.75,6.16.61,2.83,4.12.86-.38,1.64-.7,2.35-1,4.08,3,4.72,5.19,1.83,6.65-2.73-2.23-5.37-6-8.31-9.59a13.06,13.06,0,0,0,1.3-.21l-1.31.2c-4.29-5.26-9.23-10.19-16.06-9.49,11.43,7.72,23.09,14.79,5.61,7.72-2,7.09,17.39,5.38,12.66,17.42,2.16-.47,15.52,10.3,15.25,11.26-.63,2.27-9.4.5-16-1.8a31.13,31.13,0,0,0-1.55-6.41,9.11,9.11,0,0,0-1.45,1.06,2,2,0,0,0-.1-1.14,64.87,64.87,0,0,1-9.46-.82c-3.78-4.11-7.53-8.25-11.35-12.34q1.5,7.49,9,12.06c-1.37-.14-2.77-.24-4.22-.25,0,.32.12.61.19.92a54,54,0,0,0-6.37-4.36c2.5,3,4.67,4.73,6.55,5.15,1.46,5.57,4.92,7.31,12.14,9.4a8.58,8.58,0,0,1,2.37,3.2c-7-2.81-12.41-5.78-20.24-4.56.93.45,2.21,1,3.68,1.58-2.36.17-4.28,1.75-6,4-1.32-.75-2.72-1.56-4.25-2.42a4.28,4.28,0,0,0-2.27-1.27l-2.36-1.27c2.52-2.89,6.05-4.25,10.63-4q-4.55-2.15.06-5.29c-2.68,0-4.69.05-6.19.08a11.94,11.94,0,0,0-2.09-.29,2.09,2.09,0,0,1-.08.34c-2.75.08-1.53.15,0,.14-.53,2.11-2.49,5.08-5,7.66-2.21-1.1-4.69-2.25-7.54-3.47.9-3.82-1.75-9.31-5-13.84,5.12-2.1,7.39-1.82,11.37-.77.76-3-3.62-14.29-5.89-17.28,8-.59,12.47,4.48,7.49-5.22q-4.71,2.12-.06,3.65c-2,.2-8.51-2.35-7-5.51a6.68,6.68,0,0,1,6.67-1.24,8.42,8.42,0,0,0-7.49-1.14c2.53-3.8,12.13-22.44-.31-8.73q1.77-7.38-6.53-4.4a20,20,0,0,0,5.85-10.59c-3.77,6.49-8.39,12.81-12.26,19.49-3.52-3.51-5.36-5.8.15-2,0-2.6-2.54-14.43-7.14-12.67a12.08,12.08,0,0,1,2.51,1.57c-13.1.79.54-2.08-7.78-6.72-2.94,8.36-2.07,4.59-3.94-5.67,10.84,6.06,9.72,3.05,16.73-9.52-2.55,1.22-13.86,14.23-25.41,7.63,2.83-2.94,10.46-17.34,10.07-16.87-2.4,2.87-7.85,3-11.53-.21,15.13-7.64-3.86-11.09-8.34-15.63,6.44-1.32-2.12-16.71-2.81-17a15.54,15.54,0,0,1-5.1,7.44c-1.6-1.68-.62-12.27-.86-14.3-12.79.76-4.28,11.5-2,16.39q-3.26,2.81-6.55-3.56c2,9.42,1.65,9.57,4.54,17.49-7.71,0-10.31-5-11.88-10q-3,3.89-8.48,3.57a9,9,0,0,0,6.82,2.18c-6,6.41-9.1,9.52,3.23,16.25-3.49,1.88-13.79,2.28-14.71,3.24,7.82,5.22,1.7,10.94,7,17.43.26,1.24.48,2.32.67,3.26-2.52.22-5-1.21-7.93-1.6-.75,2,.61,5.73,1.72,9.65a22.69,22.69,0,0,1-1.95-4.53q-2.94,3.88-8.47,3.56a9,9,0,0,0,6.82,2.18c-4.91,5.25-7.87,8.29-2,12.91a16.07,16.07,0,0,1-1.69.23,10.43,10.43,0,0,1,4.77,3.91c-3,.82-7.21,1.28-9.94,1.73-8.52-5.8-19-13.83-23.08-15.61-2,2,7.27,7.43,8.84,8.17-14.29,11.74,9.71,16.81-.25,23.45,2.74.15,17.94.55,19.12,5.44-2.38,0-4.76-1.27-7.5-1.65a7.64,7.64,0,0,0,.14,4c-4.56.68-4.06,1.91-9.66,0q7.4,4.95,2.74,7.31c-6.73-5.48-12.87-20.28-24.38-19.09,11.43,7.72,23.09,14.78,5.61,7.72-2,7.09,17.38,5.38,12.65,17.42,1.24-.27,6.09,3.1,10,6.24a17.57,17.57,0,0,1-2.69.44,9.9,9.9,0,0,1,5.64,5.62c-3.83.21-11.45-1.81-16.37-3.85l-3.71-2.65c2.75-.28,3.87-1.21,3.31-2.83a56.82,56.82,0,0,1-8.25-.66,66.93,66.93,0,0,0-8.88-5.6c-1.08,1.08,1.21,3.21,3.76,5-.89-.06-1.78-.12-2.71-.12.63,3.63,1.87,5.86,4,7.5-4.85,8.83,12.2,13.43,3.52,19.21,1.07.06,4.06.16,7.36.54a8.71,8.71,0,0,1-3.39,1.49c5.18-.74,6.16.62,2.83,4.13,10.34-4.54,9.6-1.22,10.6,1.26-11,.06-8,2.83-15.3.33q7.41,5,2.75,7.32c-6.73-5.49-12.88-20.28-24.39-19.09,11.44,7.71,23.1,14.78,5.61,7.72-2,7.09,17.39,5.38,12.66,17.42a4.66,4.66,0,0,1,2.4.88c-3,2.7.66,4.9,1.52,10l-.09,0q-11.05-12.22-22.33-24.29,1.5,7.5,9,12.09a3.82,3.82,0,0,1-2.87,1.54c1,.78,2.11,1.6,3.19,2.45A100.34,100.34,0,0,0,1581,834.3a12,12,0,0,0,2.72,6.34c-.64.05-1.27.08-1.94.18,1.18.58,2.91,1.29,4.92,2.08a31.82,31.82,0,0,0,5.81,2.22c2.7,1,5.47,2.08,8,3.08-5.77,3.19-.14,0,.35,3-3.5.21-2.85-.3-7.51.08.09.17.14.3.22.45-12.8-2.18-15.53-8.58-39.28-17.69-4.26,7.76,17.91,4.75,6.85,11.32a59.54,59.54,0,0,0,9.49,4.09c-.63,2-3.3-.65-5.14.37a6.4,6.4,0,0,0,.81,5c4.75-1.31,15.53.35,18.88,3.66-14.62.88-36.73-.42-34.18-16.08a25.44,25.44,0,0,1-7.63.78c4.27,4.4,13.87,11.31,12.52,13-20.36-8.56-5.76-4.67-11.92-.45q15.42,1.23,22.81,12.69c-5.44-2.67-10.31-6-16.49-7,6.34,13.39,9.24.86,18.63,10.13q-5.82-.72-4.89,2.35a68.78,68.78,0,0,1,7,.24,17.68,17.68,0,0,0,1.9,2.54,32.68,32.68,0,0,1-4.13,1.12,6.7,6.7,0,0,0-1.4-.83c.29.35.56.63.83.95a154.83,154.83,0,0,1-16.34,2.26,108.43,108.43,0,0,1,16,1.15c-6.41,1.18-3.27,9.64,2.23,4.58,1.12,5.6-5.77,2.42-6.38,6,10.08,4.31,2.67,7.81,11,5.17-.64.94-1.07,1.66-1.41,2.27-8.06-3-13.58-8.61-32.65-15.92-4.26,7.75,17.92,4.75,6.86,11.31a57.41,57.41,0,0,0,9.49,4.09,1,1,0,0,1-.86.77c-.24-.08-.44-.18-.69-.25l.19.23c-1.11-.18-2.61-1-3.79-.38a6.38,6.38,0,0,0,.82,5,20.29,20.29,0,0,1,6.6-.34c1.74,2,2.92,3.37,3.62,4.18h-.64c-2.42-1.77-7.07-4.66-8.84-.78-9.73-1.57-17.63-5.76-16-15.48a25.78,25.78,0,0,1-7.63.79c4.26,4.4,13.87,11.31,12.51,13-18-7.58-8.65-5.4-10.55-1.87-8.28-5.8-15.6-10.24-17.9-6.08,8.12,5.25,26.14,12.13,19,16.81,5.13.9,5.33,0,5.51-.51,2.89,4.5,5.15,3.66,8,3.37l.18.09q-1.63,6-13.41-.26c-1,1.79,12.49,5.75,14.13,6-1.73,1.49-15.07,1.53-15,3.32a143.9,143.9,0,0,1,17.09,1.09c-.36.32-.65.61-.91.89-2.93.42-6.28.83-10.17,1.19,3,0,6.07.13,9.08.38-.37,1.5,3.27.84,6.76.84-6.12,1.32-3,9.51,2.42,4.51,1.12,5.61-5.77,2.42-6.37,6,10.08,4.31,2.67,7.8,11,5.17-6.59,9.72,4.11.35,3,6.3q-6.09-.16-12.18,0c1.67.28,2.32.94,2,2-4.52-.06-6.42-4.51-12-6.07,18.52,21.92.79-1.41-2.3,8.55,13.94,4.14,5.89,1.92,1.56,2.45a5.72,5.72,0,0,0,.36-.73,3.57,3.57,0,0,1-1.23.89,3.77,3.77,0,0,0-.57.21,5.48,5.48,0,0,1-3.92-.39c.42-.8.84-1.65,1.19-2.46,1-.87,1.14-1.64.84-2.34.14-.7,0-1.06-.55-.79a19.54,19.54,0,0,0-4.82-2.88,11.58,11.58,0,0,0,1.21-3.35c-.59,1-1.21,2-1.85,3a10.11,10.11,0,0,1-2.43-1.59c3.93-.8-1.3-10.21-1.73-10.38a9.39,9.39,0,0,1-3.11,4.54,1.74,1.74,0,0,1-.33-.77c.6-1.14,1.31-2.57,2.29-4.32a29.38,29.38,0,0,0-2.52,1.95c-.05-2.21.13-4.85,0-5.59-6,.35-4.35,4.26-2.64,7.42a16.66,16.66,0,0,1-2,1.06l-.34-.18c-.09-.16-.18-.3-.27-.47,0,.13,0,.25.08.37-1.91-1-4-1.9-5-2.9,1.44-.3,1.64-1.76,1.31-3.49,1.2-2.15,2.13-3.94,2-3.8a4,4,0,0,1-2.78,1.28,26.89,26.89,0,0,0-1.53-3.26c3.34-3.43-5.48-5.32-7.83-7.7,3.94-.8-1.3-10.21-1.72-10.38a9.43,9.43,0,0,1-3.11,4.54c-1-1-.38-7.49-.52-8.74-7.82.47-2.62,7-1.25,10q-2,1.71-4-2.18c1.21,5.76,1,5.85,2.78,10.69-4.71,0-6.3-3.07-7.26-6.11a5.65,5.65,0,0,1-5.18,2.18,5.5,5.5,0,0,0,4.17,1.33c-3.67,3.92-5.56,5.82,2,9.93-2.13,1.14-8.42,1.39-9,2,5.41,3.62-.13,7.63,6,12.27-2,1.08-3.87-.3-6.14-.6-1.22,3.26,6.63,13.76-3.42,14.66,2.77,1.22,4.12,3.35,3.94,7.22-2.76.31-17.15-11.55-21.19-13.31-1.21,1.21,4.43,4.53,5.4,5-8.73,7.16,5.93,10.26-.16,14.32.76,0,3.09.12,5.48.46a26.51,26.51,0,0,0,3.48,2.19,9.87,9.87,0,0,0-2,2.14c-2.54.42-2.35,1.09-5.68-.06q4.53,3,1.68,4.47c-4.11-3.35-7.86-12.38-14.89-11.66,7,4.72,14.1,9,3.43,4.72-1.2,4.33,10.61,3.28,7.72,10.64,1.33-.29,9.49,6.29,9.32,6.87s-.81.64-1.78.64c-2.64-3.26-5.67-6.33-9.89-5.9,3.55,2.4,7.13,4.69,8.39,5.8-3.9-.51-10-2.62-10.82-3.83,2-.11,2.82-.7,2.45-1.77-3.4.05-6.35-.8-9.82-.83.94,5.47,4.09,5.79,12.52,8.14-4.56,2.53-.74.27-.42,2.22-2.14.12-1.74-.19-4.58,0,2.41,4.49-2.34,3.23,3.31,4a5.28,5.28,0,0,1-4.76,3.33,10.45,10.45,0,0,1,2.86-.24,8.78,8.78,0,0,0,.55,1.75,9.37,9.37,0,0,1-.73.86l1-.4c1.24,2.32,3.62,3.22,7.88,4.4-.48.06-1.12.17-2.11.34-.5,1.8,0,2.86,1.12,3.53a3.32,3.32,0,0,1,.36,2.39c-.14-.06-.27-.07-.41-.13a3.75,3.75,0,0,1,.36.27c-.22.49-.46.5.63.62a1.36,1.36,0,0,1,.11,1.55l1.3-.12a5.34,5.34,0,0,1-4.08,2.15,6.66,6.66,0,0,1,3.45-.1c-.26.49-.5,1-.71,1.38-4.34-1.54-8.22-2.2-9.72-.08l-.05-.2-.21,0c-.52-2-.53-4.18-1.44-6.6-3.33,2-.56,3.24,0,6.76h0c-1.13-1.24-2.29-2.48-3.43-3.72a62.81,62.81,0,0,1,8-7.3c-4.26-2.08-6.38,2.35-8.92,6.31l-4.41-4.79a26.76,26.76,0,0,0,5-.82c-.92-1.17-2.22-1.41-3.91-.7q2.33-3.82,7.32-3.58c-1.85-.88-1.83-2,0-3.24l-3.78,0a7.08,7.08,0,0,0-1.28-.17c0,.06,0,.14-.06.2-1.65.05-.93.1,0,.09-.42,1.71-2.38,4.33-4.66,6.11a5.48,5.48,0,0,0-1-.56c-.72-.77-1.42-1.56-2.15-2.34,1.89-3.54,4.19-8.86-.26-4.38a20.73,20.73,0,0,0-2.6-4.72,8.87,8.87,0,0,1,6.94-.47c.46-1.85-2.21-8.73-3.6-10.56,4.86-.36,7.62,2.74,4.58-3.18-1.92.85-1.94,1.59,0,2.22-1.25.12-5.2-1.43-4.3-3.36a4.08,4.08,0,0,1,4.08-.76,5.11,5.11,0,0,0-4.57-.69c1.54-2.33,7.4-13.71-.2-5.34q1.08-4.5-4-2.68a12.3,12.3,0,0,0,3.57-6.47c-2.3,4-5.12,7.82-7.49,11.9-2.15-2.14-3.27-3.54.09-1.24,0-1.58-1.54-8.81-4.36-7.73a7.24,7.24,0,0,1,1.54,1c-8,.48.33-1.27-4.75-4.1-1.8,5.1-1.27,2.8-2.41-3.46,6.62,3.7,5.94,1.86,10.22-5.82-1.56.75-8.46,8.65-15.51,4.64,1.73-1.8,6.38-10.57,6.14-10.28-1.47,1.75-4.8,1.83-7-.13,9.25-4.66-2.35-6.77-5.09-9.55,3.94-.8-1.3-10.2-1.72-10.38a9.46,9.46,0,0,1-3.11,4.55c-1-1-.38-7.5-.52-8.74-7.82.47-2.62,7-1.25,10q-2,1.71-4-2.17c1.21,5.75,1,5.84,2.78,10.68-4.71,0-6.3-3.06-7.26-6.1a5.67,5.67,0,0,1-5.18,2.18,5.54,5.54,0,0,0,4.17,1.33c-3.67,3.92-5.56,5.81,2,9.92-2.13,1.15-8.42,1.39-9,2,4.62,3.09,1.27,6.47,4,10.28-.44.71-.88,1.41-1.33,2.11a21.42,21.42,0,0,0-2.84-.73c-.35.94.06,2.5.57,4.24-.94,1.46-1.88,2.92-2.74,4.42-2.15-2.15-3.28-3.55.09-1.25,0-1.58-1.55-8.81-4.36-7.73a7.05,7.05,0,0,1,1.53,1c-8,.47.33-1.28-4.75-4.11-1.79,5.1-1.27,2.8-2.41-3.46,6.62,3.7,5.94,1.86,10.22-5.82-1.56.75-8.46,8.65-15.51,4.64,1.73-1.8,6.38-10.56,6.14-10.28-1.46,1.76-4.8,1.83-7-.13,9.24-4.66-2.36-6.77-5.09-9.55,3.93-.8-1.3-10.2-1.72-10.38a9.5,9.5,0,0,1-3.12,4.55c-1-1-.37-7.49-.52-8.74-7.81.47-2.61,7-1.25,10-1.33,1.15-2.67.42-4-2.17,1.21,5.75,1,5.84,2.78,10.68-4.71,0-6.3-3.06-7.26-6.1a5.65,5.65,0,0,1-5.17,2.18,5.47,5.47,0,0,0,4.16,1.33c-3.66,3.92-5.56,5.82,2,9.93-1.37.73-4.44,1.1-6.62,1.42,1.16-2.59-2.58-9.26-2.94-9.41a9.39,9.39,0,0,1-3.11,4.54c-1-1-.38-7.49-.52-8.73-7.82.46-2.62,7-1.25,10-1.33,1.14-2.67.42-4-2.18.58,2.75.84,4.2,1.14,5.5-2.07-1.15-4.72-2.19-5.86-3.34,3.94-.81-1.3-10.21-1.72-10.39a9.41,9.41,0,0,1-3.11,4.55c-1-1-.38-7.49-.52-8.74-4.65.28-4.69,2.72-3.67,5.27-2.38,1.88-8.52,7.7-14.79,4.14,1.73-1.8,6.38-10.57,6.14-10.28-1.46,1.75-4.79,1.83-7-.13,9.24-4.66-2.36-6.77-5.09-9.55,3.93-.8-1.3-10.2-1.72-10.38a9.48,9.48,0,0,1-3.11,4.55c-1-1-.38-7.5-.53-8.74-7.81.47-2.61,7-1.25,10-1.33,1.15-2.66.42-4-2.17,1.21,5.75,1,5.84,2.78,10.68-4.72,0-6.3-3.06-7.26-6.1a5.68,5.68,0,0,1-5.18,2.18,5.5,5.5,0,0,0,4.17,1.33c-3.67,3.92-5.56,5.81,2,9.92-2.13,1.15-8.42,1.39-9,2,5.41,3.62-.14,7.63,6,12.27-2,1.07-3.87-.3-6.13-.61-1.22,3.27,6.63,13.77-3.42,14.66,2.76,1.23,4.12,3.36,3.93,7.23-2.75.3-17.14-11.55-21.19-13.32-1.2,1.21,4.44,4.54,5.4,5-8.73,7.17,5.93,10.27-.15,14.32,1.88.11,13.36.39,11.55,4.54-7.84-.13-5.65,1.79-10.27.2q4.52,3,1.68,4.47c-2.95-2.4-5.72-7.71-9.63-10.26.12-.24.24-.46.38-.71a4.59,4.59,0,0,0-.71.5l-.22-.15a19,19,0,0,0-2.49-4.94,9.48,9.48,0,0,1-3.12,4.54c-1-1-.37-7.49-.52-8.73-4,.24-4.59,2.08-4,4.23a5.66,5.66,0,0,1-5.33-1.22c9.24-4.66-2.36-6.77-5.09-9.54,3.93-.81-1.3-10.21-1.72-10.39a9.5,9.5,0,0,1-3.12,4.55c-1-1-.37-7.49-.52-8.74-7.81.47-2.61,7-1.25,10q-2,1.71-4-2.18c1.21,5.76,1,5.84,2.78,10.68-4.71,0-6.3-3.06-7.26-6.1a5.65,5.65,0,0,1-5.17,2.18,5.47,5.47,0,0,0,4.16,1.33c-3.66,3.92-5.56,5.82,2,9.93-2.13,1.14-8.42,1.39-9,2a6.3,6.3,0,0,1,2,1.95,9.92,9.92,0,0,1-2.08,2.34c-1-1-.37-7.49-.52-8.73-7.81.46-2.62,7-1.25,10-1.33,1.14-2.67.42-4-2.18.35,1.64.58,2.81.77,3.77a8.45,8.45,0,0,1-6.23-.91c1.72-1.8,6.37-10.57,6.13-10.28-1.46,1.75-4.79,1.83-7-.13,9.24-4.66-2.36-6.77-5.09-9.55,3.93-.8-1.3-10.2-1.72-10.38a9.39,9.39,0,0,1-3.11,4.54c-1-1-.38-7.49-.53-8.73-7.81.46-2.61,7-1.25,10q-2,1.71-4-2.17c1.21,5.75,1,5.84,2.78,10.68-4.72,0-6.3-3.06-7.26-6.1a5.67,5.67,0,0,1-5.18,2.18,5.54,5.54,0,0,0,4.17,1.33c-3.67,3.91-5.56,5.81,2,9.92-2.12,1.15-8.42,1.39-9,2a7,7,0,0,1,1.56,1.38,5.78,5.78,0,0,1-4.58-1.39c9.25-4.66-2.35-6.77-5.09-9.55,3.94-.8-1.3-10.2-1.72-10.38a9.41,9.41,0,0,1-3.11,4.55c-1-1-.38-7.5-.52-8.74-7.82.47-2.62,7-1.25,10-1.33,1.15-2.67.42-4-2.17,1.21,5.75,1,5.84,2.78,10.68-4.71,0-6.3-3.06-7.26-6.1a5.67,5.67,0,0,1-5.18,2.18,5.5,5.5,0,0,0,4.17,1.33c-3.67,3.92-5.56,5.81,2,9.93-2.13,1.14-8.42,1.39-9,2,5.41,3.62-.13,7.63,6,12.27-1.28.69-2.51.37-3.82,0a6.14,6.14,0,0,1-1.15-.86c3.93-.8-1.3-10.2-1.72-10.38a9.39,9.39,0,0,1-3.11,4.54c-1-1-.38-7.49-.53-8.73-7.81.46-2.61,7-1.25,10q-2,1.71-4-2.17c1.21,5.75,1,5.84,2.78,10.68-4.72,0-6.3-3.06-7.26-6.1a5.67,5.67,0,0,1-5.18,2.18,5.54,5.54,0,0,0,4.17,1.33c-3.62,3.86-5.49,5.76,1.67,9.75l-.69.56a14.11,14.11,0,0,1-1.61.39,39.49,39.49,0,0,0-5.11-3.21c-.77.77,1.21,2.38,3,3.57-2,.31-4,.53-4.27.84a5.92,5.92,0,0,1,2.1,2.22,8.92,8.92,0,0,1-8.1-.31c1.73-1.8,6.38-10.57,6.14-10.28-1.46,1.75-4.79,1.83-7-.13,9.24-4.67-2.36-6.77-5.09-9.55,3.93-.8-1.3-10.2-1.72-10.38a9.48,9.48,0,0,1-3.12,4.54c-1-1-.37-7.49-.52-8.73-7.81.46-2.61,7-1.25,10q-2,1.71-4-2.17c1.21,5.75,1,5.84,2.77,10.68-4.71,0-6.3-3.06-7.26-6.1a5.65,5.65,0,0,1-5.17,2.18,5.52,5.52,0,0,0,4.16,1.33c-1.93,2.06-3.35,3.56-3.18,5.12-.25-.43-1.29.2-3.73,2.9.71-3-.61-3.9-4-2.69a12.27,12.27,0,0,0,3.57-6.47c-2.3,4-5.12,7.83-7.49,11.91-2.15-2.15-3.27-3.55.09-1.25,0-1.58-1.54-8.81-4.35-7.73a7.05,7.05,0,0,1,1.53,1c-8,.48.33-1.27-4.75-4.11-1.8,5.11-1.27,2.8-2.41-3.46,6.62,3.7,5.94,1.86,10.22-5.82-1.56.75-8.46,8.65-15.51,4.64,1.73-1.8,6.38-10.56,6.14-10.28-1.46,1.76-4.8,1.83-7-.13,9.25-4.66-2.35-6.77-5.09-9.54,3.94-.81-1.29-10.21-1.72-10.39a9.41,9.41,0,0,1-3.11,4.55c-1-1-.38-7.49-.52-8.74-7.82.47-2.62,7-1.25,10q-2,1.71-4-2.18c1.21,5.76,1,5.85,2.78,10.68-4.71,0-6.3-3.06-7.26-6.1a5.67,5.67,0,0,1-5.18,2.18,5.5,5.5,0,0,0,4.17,1.33c-3.66,3.92-5.56,5.82,2,9.93a12.44,12.44,0,0,1-3.42.93c-2-1-4.24-2-5.27-3,3.93-.8-1.3-10.21-1.72-10.38a9.39,9.39,0,0,1-3.11,4.54c-1-1-.38-7.49-.53-8.73-7.81.46-2.61,7-1.25,10-1.33,1.14-2.66.42-4-2.18.28,1.33.48,2.34.65,3.19a17,17,0,0,0-2.15-4,9.45,9.45,0,0,1-3.12,4.54c-1-1-.37-7.49-.52-8.74-7.81.47-2.61,7-1.25,10q-2,1.71-4-2.18c.37,1.75.6,3,.8,4h-.07l.09.06a31.29,31.29,0,0,0,1.27,4.72,2.77,2.77,0,0,0-.36,1.83c-3.89-.44-5.33-3.21-6.21-6a5.66,5.66,0,0,1-5.18,2.18,5.48,5.48,0,0,0,4.16,1.33c-3.66,3.92-5.55,5.82,2,9.93-2.13,1.14-8.42,1.39-9,2,5.42,3.62-.13,7.63,6,12.27-2,1.07-3.84-.28-6.09-.6a5.12,5.12,0,0,0-3.82-.28c1.54-2.33,7.41-13.71-.19-5.34q1.08-4.5-4-2.68a12.17,12.17,0,0,0,3.57-6.47c-2.12,3.65-4.66,7.22-6.9,10.95-.2-.55-.42-1.09-.65-1.6-.45-2.59-1.89-7.31-4.2-6.42a7.42,7.42,0,0,1,1.53,1,23.36,23.36,0,0,1-2.75.06,17.65,17.65,0,0,0,0-2,2.13,2.13,0,0,1-.25,0c.08-.62-.22-1.37-1.75-2.22-1.79,5.1-1.27,2.8-2.41-3.46,6.62,3.7,5.94,1.86,10.22-5.82-1.56.75-8.46,8.65-15.51,4.64,1.73-1.8,6.38-10.57,6.14-10.28-1.46,1.75-4.8,1.83-7-.13,9.24-4.66-2.36-6.77-5.09-9.55,3.93-.8-1.3-10.2-1.72-10.38a9.5,9.5,0,0,1-3.12,4.55c-1-1-.37-7.5-.52-8.74-7.81.47-2.61,7-1.25,10-1.33,1.15-2.67.42-4-2.17,1.22,5.75,1,5.84,2.78,10.68-4.71,0-6.3-3.06-7.26-6.1a5.65,5.65,0,0,1-5.17,2.18,5.47,5.47,0,0,0,4.16,1.33c-3.66,3.92-5.56,5.81,2,9.92-2.13,1.15-8.42,1.39-9,2,5.41,3.62-.13,7.63,6,12.27-2,1.07-3.87-.3-6.14-.61-1.21,3.27,6.64,13.77-3.42,14.66,2.77,1.23,4.13,3.36,3.94,7.23l-.11,0c0-.51-.24-.66-.92-.21a26.76,26.76,0,0,1-4.73-2.67,11.85,11.85,0,0,0,1.44-3.73c-.65,1.11-1.35,2.22-2.05,3.33-2.8-1.87-6-4.21-8.82-6.19,1-1.18,1.89-3.38,3.71-6.64-.84.4-3.23,2.87-6.35,4.45a6,6,0,0,1,2-3c-.48-.4-4.12-.23-7-.46l-1.36-.69q.45-.75.87-1.5c4.62-4,2.45-5.73-1.38-9a5.77,5.77,0,0,0,4.2-1.91,6,6,0,0,1-5.7-1.64,20.15,20.15,0,0,1-.5,2c-1.57-.94-3.61-1.8-5.07-2.68.07-.94.16-2.07.29-3.56,0,.12-.09.21-.14.33a14.89,14.89,0,0,0-1.6-5.4,2.57,2.57,0,0,0-.84-1.63,5.15,5.15,0,0,0-.72-1.08c-.06.19-.15.37-.22.55a7.2,7.2,0,0,0-3-.33c0,.58.28,2.19.52,3.92-.15.13-.28.28-.43.41-1-1-.38-7.5-.53-8.74-7.81.47-2.61,7-1.25,10a2,2,0,0,1-.93.49,9.89,9.89,0,0,1-.67-1.24,3.76,3.76,0,0,0-.51,1,6,6,0,0,1-1.89-2.4c.48,2.29.74,3.68,1,4.83a15.28,15.28,0,0,0-.89,5.41c-2.69-.94-3.84-3.29-4.58-5.66a5.68,5.68,0,0,1-5.18,2.18,5.54,5.54,0,0,0,4.17,1.33c-3.48,3.71-5.35,5.61.88,9.3a6.88,6.88,0,0,0-1.31,1.36c-2.67.56-6.17.81-6.58,1.24,5.41,3.62-.14,7.62,6,12.27-2,1.07-3.87-.3-6.13-.61a5.84,5.84,0,0,0,.27,3.18c-3.06-1.31-5.48-3.24-6.33-3.53,3.92,5.4,4.78,7.94,7.36,7.21A12.2,12.2,0,0,1,889,1009a1.56,1.56,0,0,0,0,.52,3.9,3.9,0,0,1-1.12,2.43c-.48,0-1,.09-1.75.13a7.22,7.22,0,0,1,1.48-1.19c-1.27-.32-2.13.82-2.7,2.38a9.82,9.82,0,0,1-1,.17,7.41,7.41,0,0,1,.84.44A19.15,19.15,0,0,0,884,1019c-.74-.44-1.55-1-2.39-1.53-1.1-1.34-2.22-2.67-3.32-4,0-.43-.09-.64-.44-.53-1-1.22-2-2.43-2.93-3.67a12.27,12.27,0,0,0,2.25,4.06,6.82,6.82,0,0,0-.69.57c-1.42-1-2.82-2-4.14-2.94a11.52,11.52,0,0,0,1.74-4.19c-.73,1.27-1.52,2.52-2.33,3.78a38,38,0,0,0-5.13-3.22c-1,1,2.45,3.29,4.35,4.41l-.68,1-2.11,0a6.9,6.9,0,0,0-1.28-.17c0,.06-.05.14-.06.21-1.65,0-.93.09,0,.08a6.27,6.27,0,0,1-.64,1.53c-.67-2.53-2-5.48-3.84-4.77a7.05,7.05,0,0,1,1.53,1c-8,.48.33-1.27-4.75-4.11-1.4,4-1.39,3.45-1.85.07a8.47,8.47,0,0,1,5.79,0,5.8,5.8,0,0,0-.2-2.28c1.11-1,2-3.36,4.07-7-.72.35-2.59,2.23-5.08,3.76a23.37,23.37,0,0,0-2.39-5c4.86-.36,7.62,2.74,4.58-3.18-1.92.85-1.93,1.6,0,2.22-1.25.12-5.2-1.43-4.3-3.36a4.11,4.11,0,0,1,4.08-.76,5.11,5.11,0,0,0-4.57-.69c1.54-2.33,7.4-13.71-.19-5.34q1.08-4.5-4-2.68a12.3,12.3,0,0,0,3.57-6.47c-2,3.37-4.28,6.68-6.39,10.1-.35-.23-.74-.46-1.15-.68-.43-2.57-1.88-7.39-4.21-6.49a7.42,7.42,0,0,1,1.53.95c-.6,0-1.08.06-1.51.07a15.65,15.65,0,0,0-1.83-5.89c2.77.65,3.2-1.83,6.4-7.56-1.25.6-6,5.82-11.42,5.77,0-2,.13-4,0-4.65a8.45,8.45,0,0,0-1.93.33c1.92-3.17,4.09-7.29,3.93-7.09-1.46,1.75-4.8,1.83-7-.13,9.25-4.66-2.35-6.77-5.09-9.55,3.94-.8-1.29-10.2-1.72-10.38a9.41,9.41,0,0,1-3.11,4.55c-1-1-.38-7.5-.52-8.74-7.82.47-2.62,7-1.25,10-1.33,1.15-2.67.42-4-2.17,1.21,5.75,1,5.84,2.78,10.68-4.71,0-6.3-3.06-7.26-6.1A5.67,5.67,0,0,1,809.6,951a5.5,5.5,0,0,0,4.17,1.33c-2.19,2.34-3.72,3.95-3,5.75-2.87,2.34-8.21,6.31-13.64,3.22,1.72-1.8,6.37-10.57,6.13-10.28-1.46,1.75-4.79,1.83-7-.13,9.25-4.67-2.36-6.77-5.09-9.55,3.94-.8-1.3-10.21-1.72-10.38a9.39,9.39,0,0,1-3.11,4.54c-1-1-.38-7.49-.53-8.73-7.81.46-2.61,7-1.24,10-1.34,1.14-2.67.42-4-2.17,1.21,5.75,1,5.84,2.78,10.68-4.71,0-6.3-3.06-7.26-6.1a5.7,5.7,0,0,1-5.18,2.18,5.54,5.54,0,0,0,4.17,1.33c-3.67,3.91-5.56,5.81,2,9.92-1.87,1-6.92,1.32-8.53,1.77a28.62,28.62,0,0,0-3.78-3.55,7,7,0,0,0,5-2.3,7.2,7.2,0,0,1-6.85-2c-.75,4-2.29,8.06-8.23,8.79,1.5-6.37,1.23-6.45,1.89-13.89q-1.95,5.2-4.72,3.35c1.27-4,6.83-13-3.09-12.43,0,1.59,1.74,9.65.66,11.09a12,12,0,0,1-4.61-5.26c-.5.29-5.68,12.93-.6,13.35-2.88,3.73-16,7.91-6.51,12.17a8.65,8.65,0,0,1-7.34-.6c1.72-1.8,6.37-10.56,6.13-10.28-1.46,1.76-4.79,1.83-7-.13,9.24-4.66-2.36-6.77-5.09-9.55,3.93-.8-1.3-10.2-1.72-10.38a9.41,9.41,0,0,1-3.11,4.55c-1-1-.38-7.49-.53-8.74-7.81.47-2.61,7-1.25,10-1.33,1.15-2.66.42-4-2.17,1.21,5.75,1,5.84,2.78,10.68-4.72,0-6.3-3.06-7.26-6.1A5.67,5.67,0,0,1,704,943.2a5.5,5.5,0,0,0,4.17,1.33c-3.67,3.92-5.56,5.82,2,9.93-2.12,1.14-8.42,1.39-9,2,5.41,3.62-.13,7.63,6,12.27-2,1.07-3.87-.3-6.13-.61a2.3,2.3,0,0,0-.12.81c-2.12-1.36-5.4-2.53-6.7-3.85,3.93-.8-1.3-10.2-1.72-10.38a9.41,9.41,0,0,1-3.11,4.55c-1-1-.38-7.49-.53-8.74-7.81.47-2.61,7-1.25,10-1.33,1.15-2.66.42-4-2.17,1.21,5.76,1,5.84,2.78,10.68-4.72,0-6.3-3.06-7.26-6.1a5.67,5.67,0,0,1-5.18,2.18,5.5,5.5,0,0,0,4.17,1.33c-3.67,3.92-5.56,5.82,2,9.93-2.12,1.14-8.42,1.39-9,2,5.41,3.62-.13,7.63,6,12.27-2,1.07-3.87-.3-6.13-.61-1.21,3.25,6.54,13.66-3.29,14.64,0-.12,0-.23-.09-.37-2.46.19-4.89.54-7.3,1l-3-2.17c2.85-4.66,11.61-12.3,14.58-14.4-7.8-3.8-10.62,7.52-16,13.37-1.47-1-2.8-1.93-3.88-2.58,2.67-2.71,2.12-5.1-5.22-6.89-.1-1.65,11.33-1.93,13.12-2.89-1.33-1.69-3.2-2-5.63-1q3.33-5.5,10.54-5.16c-2.66-1.25-2.65-2.81.06-4.65-2.36,0-4.13,0-5.45.07a9.64,9.64,0,0,0-1.84-.25c0,.09,0,.19-.07.29-2.42.07-1.35.14,0,.13-1,3.89-7.55,11.17-12.54,11.46a7.69,7.69,0,0,1-5-3.72c10.18-.61,6.81-9.6,2.07-16.23,4.5-1.85,6.49-1.6,10-.67.67-2.66-3.18-12.57-5.18-15.21,7-.52,11,3.95,6.59-4.58q-4.14,1.85,0,3.2c-1.8.18-7.48-2.06-6.19-4.84a5.88,5.88,0,0,1,5.87-1.09,7.38,7.38,0,0,0-6.58-1c2.22-3.35,10.66-19.74-.28-7.68,1-4.33-.88-5.61-5.74-3.87a17.58,17.58,0,0,0,5.14-9.31c-3.31,5.7-7.37,11.26-10.78,17.14-3.09-3.09-4.71-5.1.13-1.79,0-2.28-2.23-12.69-6.27-11.14a10.48,10.48,0,0,1,2.2,1.38c-11.52.69.48-1.83-6.84-5.91-2.58,7.35-1.82,4-3.47-5,9.54,5.33,8.55,2.68,14.72-8.38-2.25,1.08-12.17,12.44-22.32,6.69,2.51-2.66,9.17-15.22,8.83-14.81-2.11,2.53-6.91,2.63-10.14-.19,13.3-6.71-3.4-9.75-7.33-13.74,5.66-1.16-1.87-14.7-2.48-14.95a13.56,13.56,0,0,1-4.49,6.54c-1.4-1.47-.54-10.79-.75-12.58-11.25.67-3.76,10.12-1.8,14.42-1.91,1.65-3.84.6-5.76-3.13,1.74,8.29,1.45,8.41,4,15.38-6.79,0-9.07-4.41-10.46-8.78a8.15,8.15,0,0,1-7.45,3.13,7.91,7.91,0,0,0,6,1.92c-5.28,5.64-8,8.37,2.83,14.29-3.06,1.65-12.12,2-12.93,2.85,7.8,5.21-.18,11,8.6,17.66-2.87,1.54-5.58-.43-8.84-.87-1.75,4.7,9.55,19.82-4.92,21.1,3.91,1.74,5.86,4.75,5.67,10.16-2-1.12-3-3.17-3.64-5.24a5.32,5.32,0,0,1-3.49,2.09l-2-1.32a6.72,6.72,0,0,0,.5-1,3.4,3.4,0,0,1-.91.73c-1.17-.78-2.37-1.62-3.6-2.48,4-3.57-5.23-5.49-7.62-7.93,3.93-.8-1.3-10.2-1.72-10.38A9.43,9.43,0,0,1,545.8,936c-1-1-.37-7.5-.52-8.74-7.81.47-2.61,7-1.25,10-1.33,1.15-2.66.42-4-2.17.29,1.38.49,2.42.67,3.29a1.29,1.29,0,0,0,.2,1,38.64,38.64,0,0,0,1.9,6.37c-4.71,0-6.29-3.06-7.25-6.1a5.68,5.68,0,0,1-5.18,2.18,5.48,5.48,0,0,0,4.16,1.33c-3.66,3.92-5.55,5.81,2,9.92-1.34.73-4.32,1.09-6.49,1.41a8.07,8.07,0,0,1,1.48-.8c-9.61-3-6.76,1.46-12,7.37.49-.95,1.06-2,1.76-3.31-.64.31-2.21,1.84-4.31,3.26,1.53-9.26-2.9-3.9-6.79,2.51a8.33,8.33,0,0,1-4.41-1.14c1.73-1.8,6.38-10.56,6.14-10.27-1.46,1.75-4.79,1.83-7-.14,9.24-4.66-2.36-6.76-5.09-9.54,3.93-.8-1.3-10.21-1.72-10.38a9.41,9.41,0,0,1-3.12,4.54c-1-1-.37-7.49-.52-8.73-7.81.46-2.61,7-1.25,10-1.33,1.14-2.66.42-4-2.18,1.21,5.76,1,5.85,2.77,10.69a6.52,6.52,0,0,1-6.38-3.87,8.23,8.23,0,0,1,1.57-1.35l-2.13,0c-.11-.3-.22-.6-.31-.9a6,6,0,0,1-.9.92l-2.85,0a11.63,11.63,0,0,0-2.09-.28c0,.1-.06.22-.08.33-2.76.08-1.54.15,0,.15-1.11,4.42-8.59,12.69-14.25,13a8.73,8.73,0,0,1-5.66-4.23c11.58-.69,7.75-10.92,2.35-18.46,5.12-2.1,7.39-1.82,11.36-.76.77-3-3.61-14.3-5.89-17.29,8-.59,12.47,4.48,7.5-5.22-3.14,1.41-3.17,2.62-.06,3.65-2,.2-8.51-2.35-7-5.51a6.7,6.7,0,0,1,6.68-1.24,8.42,8.42,0,0,0-7.49-1.14c2.53-3.8,12.13-22.44-.31-8.73q1.76-7.38-6.54-4.4a19.9,19.9,0,0,0,5.85-10.59C461.49,887,456.87,893.34,453,900c-3.52-3.52-5.36-5.81.14-2,0-2.59-2.53-14.43-7.13-12.67a12.08,12.08,0,0,1,2.51,1.57c-13.11.79.54-2.08-7.78-6.72-2.94,8.36-2.08,4.59-3.94-5.66,10.84,6.06,9.72,3,16.73-9.53-2.56,1.23-13.86,14.23-25.41,7.64,2.82-3,10.46-17.35,10.06-16.87-2.39,2.87-7.85,3-11.53-.22,15.14-7.63-3.86-11.08-8.33-15.63,6.44-1.31-2.13-16.71-2.82-17a15.36,15.36,0,0,1-5.1,7.44c-1.59-1.68-.61-12.27-.85-14.3-12.8.76-4.28,11.5-2.05,16.39q-3.27,2.8-6.56-3.56c2,9.42,1.65,9.57,4.55,17.49-7.71,0-10.31-5-11.88-10q-3,3.89-8.48,3.57a9,9,0,0,0,6.82,2.18c-6,6.41-9.1,9.52,3.22,16.25-3.48,1.88-13.79,2.28-14.7,3.24,8.86,5.92-.21,12.48,9.78,20.08-3.27,1.76-6.34-.49-10.05-1-2,5.35,10.85,22.54-5.6,24,4.52,2,6.75,5.5,6.44,11.84-4.51.49-28.07-18.91-34.69-21.81-2,2,7.26,7.43,8.84,8.18-14.3,11.73,9.71,16.8-.25,23.44,3.07.17,21.88.63,18.91,7.42-12.84-.2-9.25,2.94-16.82.34q7.41,5,2.75,7.31c-6.73-5.48-12.88-20.28-24.38-19.09,11.43,7.72,23.09,14.79,5.61,7.72-2,7.09,17.38,5.38,12.65,17.42,2.17-.47,15.53,10.3,15.26,11.26-.88,3.15-17.41-1.47-22-4.5.31-.1.39-.39.2-1,2.35-.35,3.27-1.26,2.75-2.77a54.8,54.8,0,0,1-8.3-.67,1.28,1.28,0,0,1,.06-.32,4.09,4.09,0,0,1,4.07-.76,5.14,5.14,0,0,0-4.57-.69c1.54-2.33,7.41-13.71-.19-5.33q1.08-4.51-4-2.69a12.13,12.13,0,0,0,3.57-6.47c-2.3,4-5.12,7.82-7.48,11.91-2.15-2.15-3.28-3.55.09-1.25,0-1.58-1.55-8.81-4.36-7.73a7.05,7.05,0,0,1,1.53,1c-8,.47.33-1.28-4.75-4.11-1.79,5.1-1.27,2.8-2.41-3.46,6.62,3.7,5.94,1.86,10.22-5.82-1.56.75-8.46,8.65-15.51,4.64,1.73-1.8,6.38-10.56,6.14-10.28-1.46,1.76-4.8,1.83-7-.13,9.24-4.66-2.36-6.77-5.09-9.55,3.93-.8-1.3-10.2-1.72-10.38a9.5,9.5,0,0,1-3.12,4.55c-1-1-.37-7.49-.52-8.74-7.81.47-2.61,7-1.25,10-1.33,1.15-2.67.42-4-2.17,1.21,5.76,1,5.84,2.78,10.68-4.71,0-6.3-3.06-7.26-6.1a5.65,5.65,0,0,1-5.17,2.18,5.47,5.47,0,0,0,4.16,1.33c-3.66,3.92-5.56,5.82,2,9.93-2.13,1.14-8.42,1.39-9,2,3.58,2.39,2.38,5,2.91,7.76a7.18,7.18,0,0,1-1.76.11A5.26,5.26,0,0,0,292,931a6.5,6.5,0,0,0,.86,1.48,13.62,13.62,0,0,0-1.48,1.91,21.12,21.12,0,0,0-2.82-.73,6.41,6.41,0,0,0,.33,3.41,5.08,5.08,0,0,0-4.4-.6c1.54-2.33,7.4-13.71-.19-5.34q1.08-4.5-4-2.68a12.24,12.24,0,0,0,3.57-6.47c-2.3,4-5.12,7.82-7.49,11.9-2.14-2.14-3.27-3.54.09-1.24,0-1.58-1.54-8.81-4.35-7.73a7.42,7.42,0,0,1,1.53.95c-8,.48.33-1.27-4.75-4.1-1.8,5.1-1.27,2.8-2.41-3.46,6.62,3.7,5.94,1.86,10.22-5.82-1.56.75-8.46,8.65-15.51,4.64,1.73-1.8,6.38-10.57,6.14-10.28-1.46,1.75-4.8,1.83-7-.13,9.24-4.66-2.36-6.77-5.09-9.55,3.93-.8-1.3-10.2-1.72-10.38a9.55,9.55,0,0,1-3.12,4.55c-1-1-.38-7.5-.52-8.74-7.81.47-2.62,7-1.25,10q-2,1.71-4-2.17c1.21,5.75,1,5.84,2.78,10.68-4.71,0-6.3-3.06-7.26-6.1a5.66,5.66,0,0,1-5.17,2.18,5.51,5.51,0,0,0,4.16,1.33c-3.66,3.92-5.56,5.81,2,9.92a17.54,17.54,0,0,1-4.87,1.17,12.32,12.32,0,0,0,1-2.85c-.58,1-1.19,2-1.82,3a10.75,10.75,0,0,0-3.27.69,6.39,6.39,0,0,1,1.75,1.66c-1.41,2.16-2.85,4.34-4.15,6.59-2.15-2.15-3.27-3.54.09-1.24,0-1.59-1.55-8.82-4.36-7.74a7.05,7.05,0,0,1,1.53,1,22.75,22.75,0,0,1-2.75,0c1.25-2.69,1.93-5-.5-2.91a4.12,4.12,0,0,0-1.49-1.25c-.22.61-.4,1.11-.55,1.51a1.42,1.42,0,0,0-1.28-1.23c-.11-.77-.24-1.7-.42-2.77.12-.23.22-.47.32-.7,6.09,3.32,5.57,1.39,9.74-6.09-1.11.54-4.9,4.68-9.52,5.61a11.71,11.71,0,0,0,.61-2c-.41.72-.86,1.43-1.31,2.14a8.3,8.3,0,0,1-5.3-1.07c1.73-1.8,6.38-10.56,6.14-10.27-1.42,1.7-4.61,1.8-6.85,0,.06-.1.1-.2.16-.3l-.31.19,0,0c9.24-4.66-2.36-6.77-5.09-9.54,3.93-.8-1.3-10.21-1.72-10.38a9.43,9.43,0,0,1-3.11,4.54c-1-1-.38-7.49-.53-8.74-7.81.47-2.61,7-1.25,10q-2,1.71-4-2.18c.43,2,.68,3.36.9,4.44-2.11-1.27-5.12-2.39-6.35-3.64,3.93-.8-1.3-10.2-1.72-10.38a9.5,9.5,0,0,1-3.12,4.55c-1-1-.37-7.5-.52-8.74-7.81.47-2.61,7-1.25,10-1.33,1.15-2.67.42-4-2.17,1.21,5.75,1,5.84,2.78,10.68-4.71,0-6.3-3.06-7.26-6.1a5.65,5.65,0,0,1-5.17,2.18,5.47,5.47,0,0,0,4.16,1.33c-3.66,3.92-5.56,5.81,2,9.93-2.13,1.14-8.42,1.39-9,2,5.41,3.62-.13,7.63,6,12.27-2,1.07-3.87-.3-6.14-.61-.7,1.91,1.65,6.26,1.76,9.74-6.48,1.22-12.7.14-9.36,6.49-.39.14-.79.25-1.18.35-1.79-1.26-3.62-2.58-5.33-3.79a4,4,0,0,0-.48-3.42c-.22,1.28-1.44,1.44-3,1a23.05,23.05,0,0,0-3.1-1.84.54.54,0,0,0-.15.45c-3.41-1.91-6.51-4.83-4.24-4.72,5.09-5.71,6.1,1.35,9.39-1-5.76-7.53.13-6.14-1-14.31,6,.38,13.11,2.68,11.85-4-.31-1.64-7.33-.65-8.17-5.14a16.53,16.53,0,0,1,8.34,2,97.6,97.6,0,0,0-5.38-9.88c20.72-.31,15.33-16.1,20-25-.33,3.09.58,4.27,2.71,3.55-.26-4.37,1.49-9.59,6-11.42-11.12-3.51-5.53,3.07-15.07,10.25,4.71-21.19-10.78,6.54-11.34,9.69a7.27,7.27,0,0,1-4.12-4.59c-4.6,1.41,3.52,4-4.44,4q4.56,3,3.07,7.86c-11.29-12-7.76-4.89-9.23-10.87a88.48,88.48,0,0,0-12.7,1.94c-1.52-3.63,13.25-16.66,17.51-19.68C138.27,832.2,137.64,864,121,856.37c9.19-5.3,14.91-10.11,1.89-13.29-.11-1.88,12.88-2.19,14.92-3.29q-2.26-2.88-6.4-1.15,3.79-6.25,12-5.86c-3-1.43-3-3.2.06-5.3l-6.19.08a11.63,11.63,0,0,0-2.09-.28c0,.1-.06.22-.08.33-2.76.09-1.54.16,0,.15-1.11,4.42-8.59,12.7-14.26,13a8.73,8.73,0,0,1-5.65-4.23c11.58-.69,7.75-10.92,2.35-18.46,5.12-2.09,7.39-1.82,11.36-.76.76-3-3.61-14.29-5.89-17.29,8-.59,12.47,4.49,7.5-5.21q-4.72,2.1-.06,3.64c-2,.2-8.51-2.34-7-5.5a6.69,6.69,0,0,1,6.67-1.25,8.4,8.4,0,0,0-7.48-1.13c2.52-3.81,12.12-22.45-.32-8.74q1.77-7.36-6.53-4.39a20,20,0,0,0,5.85-10.6c-3.76,6.49-8.38,12.81-12.26,19.5-3.51-3.52-5.35-5.8.15-2,0-2.59-2.53-14.42-7.13-12.66a11.6,11.6,0,0,1,2.5,1.57c-13.1.78.55-2.09-7.77-6.73-2.94,8.36-2.08,4.59-4-5.66,10.85,6.06,9.73,3,16.74-9.53C107.29,752.55,96,765.55,84.43,759c2.83-2.94,10.46-17.34,10.07-16.87-2.39,2.87-7.85,3-11.53-.22,15.14-7.63-3.86-11.08-8.33-15.63,6.44-1.31-2.13-16.71-2.82-17a15.52,15.52,0,0,1-5.1,7.45c-1.6-1.68-.62-12.27-.86-14.31-12.79.76-4.27,11.5-2,16.4q-3.27,2.81-6.56-3.57c2,9.43,1.65,9.57,4.55,17.5-7.72,0-10.31-5-11.89-10q-2.94,3.88-8.47,3.56a9,9,0,0,0,6.82,2.18c-6,6.42-9.1,9.52,3.22,16.25C48,746.59,37.7,747,36.79,748c8.86,5.92-.21,12.48,9.77,20.09-3.26,1.75-6.34-.49-10.05-1-2,5.35,10.86,22.54-5.59,24,4.52,2,6.75,5.49,6.44,11.83-4.51.49-28.07-18.91-34.7-21.81-2,2,7.27,7.43,8.84,8.18-6.94,5.7-4.84,9.83-2,13.32-1.47,2.25-3,4.5-4.31,6.83-2.15-2.14-3.27-3.54.09-1.24,0-1.58-1.55-8.81-4.36-7.73a7.42,7.42,0,0,1,1.53,1c-8,.48.34-1.27-4.74-4.1-1.8,5.1-1.27,2.8-2.41-3.46,6.62,3.7,5.93,1.86,10.22-5.82-1.56.75-8.46,8.65-15.52,4.64,1.73-1.8,6.38-10.57,6.14-10.28-1.46,1.75-4.79,1.83-7-.13,9.24-4.66-2.36-6.77-5.09-9.55,3.93-.8-1.3-10.2-1.72-10.38a9.46,9.46,0,0,1-3.11,4.55c-1-1-.38-7.5-.53-8.74-7.81.47-2.61,7-1.25,10q-2,1.71-4-2.17c1.21,5.75,1,5.84,2.78,10.68-4.72,0-6.3-3.06-7.26-6.1a5.68,5.68,0,0,1-5.18,2.18A5.5,5.5,0,0,0-32.08,774c-3.67,3.92-5.56,5.81,2,9.92-2.12,1.15-8.42,1.39-9,2,5.41,3.62-.14,7.62,6,12.27-2,1.07-3.87-.3-6.13-.61-1.22,3.27,6.63,13.77-3.42,14.66,2.76,1.23,4.12,3.36,3.94,7.23-2.76.3-17.15-11.55-21.2-13.32-1.2,1.21,4.44,4.54,5.4,5-8.73,7.17,5.94,10.27-.15,14.32,1.88.11,13.37.39,11.55,4.53-7.84-.12-5.65,1.8-10.27.21q4.52,3,1.68,4.47c-4.11-3.35-7.87-12.39-14.89-11.66,7,4.71,14.1,9,3.42,4.71-1.2,4.33,10.62,3.29,7.73,10.64,1.32-.29,9.48,6.29,9.32,6.88-.6,2.12-12.86-1.54-14.1-3.3,2-.11,2.82-.7,2.45-1.76-3.4,0-6.35-.8-9.82-.83.94,5.46,4.09,5.78,12.52,8.14-4.56,2.52-.74.27-.42,2.21-2.14.13-1.74-.18-4.59,0,2.42,4.49-2.33,3.23,3.32,4a5.29,5.29,0,0,1-4.76,3.33q6-1.17,2.68,2.36c8.23-3.61,5,.93,7.54,1.86a5.73,5.73,0,0,1,3.52-2.57c1.28,0,.82,6.58.91,6.47-2.65-1.94-.88-2.15-5.25-1.42-1.26,4.64,4.24,4.36,8.18,5.25a7.11,7.11,0,0,1-7.1.54c1.22.74,1.59,1.56,1.09,2.45,11.63-1.3,1.45,3.43,7.52.58.43.52,7.35,7.09,7.1,8.78-5.45-1.49-21.26-11.09-24.47-6,.82,0,4.81-.46,5.9.55-.61.06-1.51,4.56-1.4,5-6.12-3.72-4.26-7.55-6.11-12.44-3.34,2-.52,3.26,0,6.82q-6.78-7.5-13.7-14.9a11.08,11.08,0,0,0,5.49,7.38,2.35,2.35,0,0,1-1.75.94c3.59,2.7,8,6.32,8.24,7.63-4.27-1.72-7.58-3.53-12.36-2.79,3.68,1.8,16,5.76,16.44,7.17-17.26.41-14.38-4-33.26-11.28-2.61,4.73,10.94,2.9,4.18,6.91a36.22,36.22,0,0,0,5.8,2.5c-.39,1.24-2-.4-3.14.22a3.92,3.92,0,0,0,.49,3c2.9-.8,9.49.21,11.54,2.24-8.93.53-22.42-.27-20.86-9.84A15.24,15.24,0,0,1-99,875c2.61,2.69,8.48,6.91,7.65,8-12.43-5.23-3.52-2.86-7.28-.28q9.42.75,13.94,7.75c-3.33-1.63-6.3-3.69-10.08-4.25,3.87,8.18,5.65.53,11.38,6.19q-3.56-.43-3,1.44c11.24-.09,7.87,2.4-7.44,3.83a65.13,65.13,0,0,1,9.79.71c-3.91.72-2,5.88,1.36,2.79.69,3.42-3.52,1.48-3.89,3.67,6.16,2.63,1.63,4.77,6.7,3.16-4,5.94,2.51.21,1.83,3.85q-3.72-.11-7.44,0c1,.16,1.42.57,1.2,1.21-2.77,0-3.92-2.76-7.36-3.71,11.31,13.39.48-.86-1.4,5.23,10.14,3,1.22.51-.21,1.9q3.92.94,4.57,3.76c-5.47,4.47-25.13-17.82-28.39-11.94,5,3.21,16,7.41,11.61,10.27,6.75,1.18-.5-2.8,8.37,1.8q-1,3.68-8.19-.16c-.62,1.09,7.63,3.51,8.62,3.66-1,.92-9.2.94-9.17,2a88.1,88.1,0,0,1,10.44.67c-5.83,5.34,11-2.45,5.38,7.42,1.12.54,11.69-1.33,6.9,6.56,4.56,1.6,4.63,1.54,10.53,4-13.36,3.88,4.2,3.82-6.75,4.47,1.85,3.46,10.94,2.35,14.21,3-4.56,2-6.83,2.36-8.33,2-8.08-5.63-15.15-9.81-17.41-5.74,3.12,2,7.68,4.27,11.73,6.54-1,1.46-4.21-1.31-5.27.44,6.81,3.45-3.18,2.39-3.41,4.35,3.85.75,4.68,1.51,9,1.25.71,1.54-4.1,5.78-6,6.38,2.52,2.24,13.54-.45,12,3.94-7.46,3.39-39.1-.68-29.5-6.61a4.85,4.85,0,0,0-5.46,2.09c-4.06-6.48-.43-3.09-1.79-8q-4.4,4-6.1-3c-1.77.94,1.84,6.87,3.8,8.81a59.15,59.15,0,0,0-11.83-4.73c3.35,1.91,3.85,7.1,10.91,9.56a4.48,4.48,0,0,1-5.38.2c1,.69,1,1.32,0,1.89,1.68,1.67,9.94,3,10.13,3.6-12.38,4,1.45.72,5.87,4-11.65,1.89-17.25-5.74-27.54-7.09,3.4,1.59,3.42,4.52,7.74,5.64a3.68,3.68,0,0,1-4.35.52c4,3.26.2,1.67,8.07,3.39q-3.26,3.18.51,1.55a6.13,6.13,0,0,1-5.9.87,59,59,0,0,0,6.06,1.7c-1.27,1.65-5.82,1.9-5.95,3,5.85.83,17-1,12.36,6.07,10.6-4.06-.15,0,5-.32-5.3,3.55,3.34,6.54,2.94,6.95-2.15,2.22-15.72-7.08-16.49-5.69-1.19,2.54.49,3.87,5,4-1.71,1.58-15.89-3.59-18.89-3.78,3,3.6-4.76,1.21,6.29,3.32-1.72,7.51-14.6-4.2-15.87-5-.52,2.51-2.62,2.69-6.33.52-.9,2,12.84,4.79,11.06,7.72-1-.2-9.24-2.76-9.08-.69s10,9.36,3,10.83a21.61,21.61,0,0,1,8.7,1.47,7.7,7.7,0,0,0-5.69,1.45c2.49,1.82,4.7.33,7.78.59-2,4.37-4.07,6.22-9.24,6.53,5.76,3.62,13.34,4.27,18.92,8.22a35.23,35.23,0,0,1-5.75,4.79c5.83-.63,13.9-3.64,17.48-2.45-3.58,1.61,1.72.43-2.08,2.94-.59-.51.78-.75.44-1.42-4.14,1-18.4,9.75-16.21,9.62-.83,2.33-25.88-9.28-35.22-13.38a.9.9,0,0,0-.91,1.06c2.3.91,11.34,3.3,11,4.74-3,1.73-3.31-1.42-6.32,1.82,2.06,1.17,11.4,1.53,9.41,4.5,1.25-.25,2.27-.17-.22.25a6.65,6.65,0,0,1-1.34,1.16c-.51-.41-.29-.74.19-1-1.37.2-3.35.46-6.19.77-.51,1.47,4,5.44,8.36,4.78.95,2.84-3.63-2,.19,3.57-2.62.72-5.7.57-7.41,2.52a65.86,65.86,0,0,0,21.56.09c-5.11,8.35,4.91,3.14,12.77,2.69-1.08,6.34-19,4.17-16.81,10.63-15-4.66-16.73-10.66-29.55-13.82.27,4.55,7.18,2.82,9.15,5.81-1,.15-.53,11.34.8,14.67,1,2.39,10.74,0,11.48-.51q2.15,4.14-2.7,6.2c4.41-.63,1.85,1.2,7.64-.34.36,6,14.22-1.53-7,6.59,4,.86,21-4.37,23-1.62-3.32,2-7.2,4.17-10.66,6.42a19.44,19.44,0,0,1-5-2.18c-.43,1,1.16,2,3.56,3.14-.49.33-1,.66-1.46,1a10.29,10.29,0,0,0,4,.13c2.9,1.24,6.25,2.56,8.73,3.93-2,1-4,1.82-4.77,2.32a11.06,11.06,0,0,0,7.6-.29,1.9,1.9,0,0,1,.49,2.42c-1.58-.33-15.13-4.51-14.88-1.13.23,3.14,16.3,15.33,4.9,17.74a35.17,35.17,0,0,1,14.24,2.41,12.69,12.69,0,0,0-9.32,2.36c4.09,3,7.7.55,12.76,1-3.23,7.15-6.68,10.17-15.14,10.68,9.42,5.94,21.84,7,31,13.46a56.09,56.09,0,0,1-9.41,7.85c9.55-1,22.77-6,28.62-4-5.86,2.64,2.81.71-3.39,4.8-1-.83,1.27-1.22.71-2.32-6.77,1.69-30.13,16-26.54,15.76-1.36,3.81-42.43-15.23-57.71-21.92a1.46,1.46,0,0,0-1.45,1.74c3.76,1.5,18.57,5.4,18,7.76-4.94,2.84-5.43-2.32-10.36,3,3.38,1.9,18.68,2.5,15.41,7.36,2-.4,3.71-.28-.3.39a11,11,0,0,1-2.26,1.93c-.82-.68-.47-1.22.33-1.63-2.25.33-5.5.75-10.14,1.26-.83,2.41,6.52,8.9,13.69,7.83,1.54,4.65-5.95-3.29.3,5.85-4.29,1.17-9.33.93-12.13,4.11,7.49,1.59,21.46,2.35,35.3.15-8.36,13.68,8,5.15,20.91,4.42-1.77,10.38-31.09,6.81-27.52,17.39-24.51-7.63-27.4-17.45-48.39-22.62.45,7.44,11.76,4.61,15,9.52-1.66.23-.87,18.56,1.32,24,1.58,3.93,17.58,0,18.79-.83q3.51,6.78-4.42,10.16c7.23-1,3,2,12.51-.57.58,9.88,23.29-2.5-11.47,10.81,6.58,1.41,34.44-7.17,37.68-2.67-7,4.13-15.57,9-22.16,13.72,7.57,2.13,22.18-4.66,26.59-3.34,11.87,3.54-9.52,11.29-13.63,13.78,10.3,3.21,13.8-3.44,21.59-1.32-1-8.39,10.21-8.19,18.19-13.43q-10.78,15-29.58,22.11c3.21,5.05,26.25-3.51,37.85-7.09-1.75,6.68,4.16,23.61,4,22.59,1.86-3.73,4.44-5.07,7.71-4-.7,3.32.08,15.24-1.68,4.61a11.23,11.23,0,0,1-2.72,7.4c-2.44,13.87,29.88-9.19,31.14-9.26,2,4.43,4.26,11.5-3.42,12.35q1.52,9.9,12.76,5c.24-.82-10.09-11-1.91-14.27,11-4.36,2.95,10.65,12.68,7.2.63,8.05-13.31,6.89-16.29,11.62,13.15-.06,40.09,5.07,41.07-9.23,1.45,2,21.07,1.73,32.21-.09.32.55.79,1.29,1.48,2.3-3.47,1-7.55.76-9.82,3.33,6.06,1.29,17.38,1.9,28.58.12-6.77,11.07,6.51,4.17,16.93,3.58-1.43,8.4-25.17,5.52-22.28,14.08-19.85-6.18-22.18-14.13-39.17-18.31.36,6,9.52,3.73,12.12,7.7-1.34.19-.7,15,1.07,19.44,1.28,3.17,14.24,0,15.21-.68q2.85,5.49-3.57,8.23c5.85-.85,2.45,1.58,10.12-.46.48,8,18.85-2-9.28,8.74,5.33,1.15,27.88-5.8,30.5-2.15-5.68,3.34-12.6,7.25-17.94,11.1,6.13,1.72,18-3.77,21.53-2.7,9.61,2.87-7.71,9.14-11,11.16,8.34,2.6,11.17-2.79,17.48-1.07-.8-6.8,8.27-6.64,14.73-10.88q-8.73,12.11-24,17.9c2.6,4.09,21.25-2.84,30.65-5.73-1.42,5.4,3.36,19.1,3.22,18.28,1.51-3,3.6-4.1,6.25-3.27-.57,2.69.06,12.34-1.36,3.73a9.16,9.16,0,0,1-2.2,6c-2,11.23,24.18-7.44,25.2-7.5,1.65,3.58,3.45,9.3-2.76,10q1.21,8,10.33,4.07c.19-.67-8.17-8.91-1.55-11.55,8.87-3.53,2.39,8.62,10.27,5.83.51,6.52-10.78,5.57-13.19,9.4,10.65,0,32.46,4.11,33.25-7.47,1.47,2,26,1.19,31.25-1.42,5.46-2.73,10.93-18.11,17-17,5.82,1.06,12-1.37,17.29-4.53-3.1,3.53-13.55,7.54-16.3,9.21,10.3,3.21,13.8-3.44,21.59-1.32-1-8.4,10.22-8.2,18.19-13.44q-10.78,15-29.58,22.11c3.21,5,26.25-3.51,37.85-7.08-1.75,6.68,4.16,23.6,4,22.59q2.81-5.6,7.71-4c-.7,3.32.08,15.24-1.68,4.6a11.26,11.26,0,0,1-2.71,7.41c-1.9,10.77,17.14-.72,26.35-6.43a11.88,11.88,0,0,0,5.73-.54c1.54,4.24,2.08,9.34-4.37,10q1.51,9.92,12.76,5c.24-.82-10.09-11-1.9-14.26,11-4.36,2.94,10.65,12.67,7.2.63,8-13.31,6.88-16.29,11.61,13.15-.05,40.09,5.08,41.07-9.23,1.82,2.47,32.13,1.48,38.61-1.75,6.74-3.37,13.49-22.36,21-21,17,3.13,36.9-18,36.9-18s3.65,4.76,15.31,2.75a27.48,27.48,0,0,0,14.59,16.13c-.8,4.81,3.25,4.46,8.47,2.3,7.38.63,14.42-2.39,17.92-10a6.38,6.38,0,0,1,.87-.47l.2.13c1.77,3.9,3.58,9.94-3.08,10.68.46,3,1.71,4.84,3.72,5.52-2.53,3.53-4.45,7.4-1.15,12.25.24-1.74,3.52-6,6.48-9.3,1.7.07,3.56.18,5.5.3.27,5.26-2.13,11.2-8.34,12.88,11.23,6,.15.42.76,6,1.62,14.56,33.76-6.6,37.46-12.59,2.73,5.25,6.86,10.94,12.27,2.48,7.36,4.27-4.16,5.81,8.12,9.88,5,1.67,14.12-15,7.59-22.41,1.68-.44,12,.74,12.53.22,2.46-2.25-.72-6.78-1-9.28,4.59,3.72,3.8,11.85,7.24,14.33,5.06-8.79,10.49-9.78,17.46-18.26-4.23-2.1-13.41,1.56-15.28-4.26,3.87,1.24,9.73,2.71,11.7-1.18a23.8,23.8,0,0,0-9.14.74c1.66-5.87,14.16-2.17,1.38-6.28l.89-.41c10.68,0,21.88-9.16,26.74-13.65a9.45,9.45,0,0,1,1,4.59c-.7.44-1.42.88-2.16,1.28a7.9,7.9,0,0,0,1.52.25,3.77,3.77,0,0,1-2.58,1.16c.39,2.5,1.53,3.84,3.44,4a8,8,0,0,0,2.15.78,3.42,3.42,0,0,0-1.17,1c6.21,0,17.41,1.81,22.48-1.37l.59.42c-.49,7.06-7.71,7.42-12.28,6.81,1.17.34,2.62.79,4.46,1.4-9.46,4.34-.17.34,1.65,4.7a18.65,18.65,0,0,0-7.11.28c1.88,2.81,6.25,1.14,9.11-.17-.9,4.65-8.3,2.68-11.37,4.68,6.15,5.89,10.42,6.15,15.13,12.46,2.42-2.24,1.06-8.42,4.25-11.71,0,2-2.05,5.74,0,7.24.49.35,8.29-1.5,9.63-1.32-4.35,6.33,4.19,18.3,7.91,16.55,9.07-4.27.06-4.39,5.33-8.36,3.66,4.45,6.07,3,7.73.21a11.32,11.32,0,0,0,5.28-.28c8.32,5.28,26.29,12.6,26.21,3.27,0-4.31-8.06,1,0-4.65-4.65-.67-7-4.58-7.53-8.45,1.12-.84,2.13-1.66,3-2.42,2.78,2.29,6.6,6,7,7.54a6.84,6.84,0,0,0,.83-4.4c1.63.39,3.47-.5,5.52-3.71,6.47,3.76-3.66,5.11,7.14,8.69,4.41,1.47,12.39-13.11,6.7-19.68l0,0c1.66-.34,10.45.66,10.94.21,1.7-1.55.37-4.31-.44-6.5a2.93,2.93,0,0,0,1.57,1c1.83,3.54,2,8.24,4.32,9.94,4.06-7,8.39-8.41,13.77-14.25,5.91,3.1,13.4,5.7,19.81,3.71,5.68-1.76,12.63,12.24,18.13,14.21,5.29,1.89,28.72-.14,29.89-2.21,2.07,10.92,22.33,4.49,32.46,3.32-2.72-3.37-13.35-1.19-13.61-7.44,7.81,1.76.26-9.06,9.09-6.71,6.61,1.75-.41,10.55-.15,11.15q9.12,2.73,9.36-5c-6,.06-4.92-5.59-3.77-9.19,1-.06,28,14.71,24.82,4.26a8.78,8.78,0,0,1-2.77-5.58c-.37,8.58-.87-.76-1.72-3.26,2.43-1.09,4.53-.3,6.31,2.4,0,.8,3-12.78,1-17.76,8.09,1.47,23.23,5.06,28.28,3.16,7.58.35,15.65,0,16.07-6.07,1.11,1.51,19.62.91,23.57-1.07a11.51,11.51,0,0,0,3.49-3.52c1.77,1.57,5.47.69,9.36-1.11a5.33,5.33,0,0,0,1.23,1.32,5.4,5.4,0,0,1-.92.22q.93,6.06,7.79,3.07a6.61,6.61,0,0,0-1-1.61,38.15,38.15,0,0,0,6.94-.41c-2,2.48-7.81,2.47-9.27,4.8,8,0,24.49,3.1,25.08-5.64,1.11,1.51,19.62.9,23.58-1.07,1.56-.78,3.12-2.93,4.71-5.25a5.29,5.29,0,0,0,1.31,0c-2,2.7-4.78,5.55-2.15,9.42.2-1.42,3.72-5.6,5.65-7.43l1.35.08c1,3.52-.21,8.49-4.77,9.73,6.86,3.64.09.25.46,3.63,1,8.89,20.62-4,22.88-7.69,1.67,3.2,4.19,6.68,7.5,1.51,4.49,2.61-2.55,3.55,4.95,6,2.12.7,5.41-3.9,6-8.32,8.09.47,17.6.65,18-6,.25.35,1.47.58,3.19.71a5.32,5.32,0,0,0,1,3.75,11.33,11.33,0,0,1,2.22-3.62c1.57,0,3.28,0,5-.11a7,7,0,0,1-5,6.1c6.85,3.64.09.25.46,3.63,1,8.9,20.61-4,22.87-7.68,1.67,3.2,4.2,6.68,7.5,1.51,4.49,2.6-2.54,3.55,5,6,2.63.87,7.05-6.43,5.78-11.41,1.32.69,3.2.52,5.67-.55a6.31,6.31,0,0,0-1-1.54,6.11,6.11,0,0,0,1.84,0c1.5-1.37-.44-4.14-.65-5.67,2,1.66,2.35,4.75,3.18,6.9-2.5,1-5.71,1.49-6.74,3.14,3,0,7.21.42,11.32.5,2.14,4.61,12.61-.88,18.56-5.34,1.61.06,3.49,0,5.45,0,1.31,1.11,3.4,1,6.25-.2a.39.39,0,0,0-.07-.21l.79-.09a5.84,5.84,0,0,0,0,.83c-1.77.57-3.44,1.15-4.13,2.25,1.47,0,3.23.09,5.12.21l0,0s0,0,0,0l.31,0a13.28,13.28,0,0,0,2.59,1.1,2.51,2.51,0,0,0,2.33-.86h.29a6.37,6.37,0,0,1-3.31,2.15c6.86,3.64.09.25.46,3.63,1,8.9,20.62-4,22.88-7.68,1.67,3.2,4.19,6.68,7.5,1.51,4.49,2.6-2.55,3.54,5,6,2.88,1,7.93-7.89,5.28-12.75l.21-.08a6,6,0,0,0,1.21-.88c2.22.1,5.35.38,5.59.16,1.51-1.37-.44-4.14-.64-5.67,2.8,2.27,2.32,7.24,4.42,8.76,3-5.28,6.3-6,10.46-10.93a10.42,10.42,0,0,0,10.74-6.62c10.83,6.36-5.07,10,.12,17.65.24-1.78,5.69-7.88,6.71-8.28,1.47,3.49.48,9.31-4.49,10.65,6.86,3.64.1.25.47,3.63,1,8.9,20.61-4,22.87-7.69,1.67,3.21,4.19,6.69,7.5,1.52,4.49,2.6-2.54,3.54,5,6,.9.3,2-.38,3-1.58,1.83,7.65,20.51-4.68,22.71-8.25,1.67,3.21,4.19,6.68,7.5,1.51,4.49,2.61-2.54,3.55,5,6,2.17.72,5.58-4.17,6-8.7,8.53.49,20.73,1.74,21.24-5.77,1.11,1.51,19.62.9,23.58-1.07,2.39-1.19,4.77-5.57,7.25-8.89,3.55,2,12.35-2.76,17.55-6.7.33-.18.65-.37,1-.57,1,.28,2.23-.58,3.33-2,1.65,2.86,4,5.24,7,.57,4.49,2.61-2.54,3.55,5,6,1.85.61,4.58-2.83,5.61-6.66,5.84,8.76,19.27,10.7,23.33.78,10.83,6.36-5.07,10,.12,17.65.24-1.77,5.69-7.88,6.71-8.28,1.47,3.49.48,9.31-4.48,10.65,6.85,3.64.09.26.46,3.63,1,8.9,20.61-4,22.87-7.68,1.67,3.2,4.19,6.68,7.5,1.51,4.49,2.61-2.54,3.55,5,6,3.07,1,8.62-9.14,4.63-13.69,1-.26,7.31.46,7.66.14,1.5-1.37-.44-4.14-.65-5.67,2.81,2.27,2.32,7.24,4.43,8.76,3.09-5.37,6.41-6,10.66-11.16-2.59-1.28-8.19,1-9.33-2.6,2.36.76,5.94,1.66,7.15-.72a14.69,14.69,0,0,0-5.59.45c1-3.58,8.65-1.32.84-3.83,1.39-.65,2.48-1.13,3.36-1.51-4.13,1.06-11.25,1.45-10.35-7.57a14.32,14.32,0,0,0,5.45,1.92c-2.38,13.79,29.88-9.23,31.14-9.3,2,4.43,4.26,11.5-3.42,12.35q1.52,9.9,12.76,5c.24-.82-10.09-11-1.9-14.27a11.63,11.63,0,0,1,2.27-.66,5.82,5.82,0,0,0,1,2.4,7,7,0,0,1,1.25-2.33c1.58.58,2,2.36,2.33,4.14a6.69,6.69,0,0,1-1.36.57l1.71.91a6.9,6.9,0,0,0,.38,1c-.8.08-1.77.35-1.62,1.69.33,3,2.76,3.48,5.92,2.73-2.9,4.53-13,4.39-15.5,8.34,6.92,0,17.64,1.36,26.41.61,4,2.88,16.08-4.6,20.32-8.64.69,0,1.43.09,2.2.11,1.62,2.53,3.8,4.22,6.53,0h.21c4.16,2.53-2.59,3.48,4.82,5.94,1.82.6,4.51-2.74,5.56-6.5,6-.53,11.32-1.4,13.62-2.55,6.75-3.37,13.5-22.36,21-21,17,3.13,36.9-18,36.9-18s3.64,4.77,15.31,2.75c6.49,19.5,33.8,26.06,41.34,7.64,17.73,10.41-8.29,16.41.2,28.89.4-2.9,9.32-12.89,11-13.56,2.4,5.73.79,15.25-7.35,17.45,11.23,6,.15.41.76,5.94,1.61,14.57,33.75-6.6,37.45-12.58,2.74,5.24,6.87,10.94,12.28,2.47,7.36,4.27-4.16,5.81,8.12,9.88,5,1.67,14.12-15,7.59-22.41,1.68-.43,12,.74,12.53.22,2.46-2.24-.72-6.78-1.05-9.28,4.58,3.72,3.79,11.85,7.24,14.34,5.06-8.79,10.49-9.79,17.46-18.27-4.24-2.1-13.41,1.56-15.28-4.25,3.87,1.23,9.72,2.7,11.7-1.19a24.07,24.07,0,0,0-9.15.74c1.67-5.87,14.17-2.17,1.39-6.28,2.27-1.06,4-1.85,5.5-2.47-5.81,1.49-15.2,2.15-16.81-7a23.06,23.06,0,0,0,1.66-4.34c8.94,4.34,25.64,3.07,29.54-.65-18.76-12.84-6.44-3.54,1.71-7a47.65,47.65,0,0,1-9.36-5c.68-.68,1.37-1.33,2.08-1.94,2.93,0,2.6-.35,1.9-1.62,1.73-1.44,3.55-2.94,5.49-4.86,2.3-1.13,5-3,9-2.53.86-5-1.36-7.9-4.36-11.71,13,.2,11.45-3.31,10.13-9l.25,0c6.49,19.5,33.8,26.06,41.34,7.63,17.73,10.42-8.3,16.42.19,28.9.4-2.9,9.32-12.9,11-13.56,2.4,5.72.78,15.24-7.35,17.44,11.23,6,.15.42.76,5.95,1.61,14.56,33.75-6.6,37.45-12.59,2.73,5.25,6.86,10.94,12.28,2.48,7.35,4.27-4.17,5.81,8.11,9.88,5,1.67,14.13-15,7.59-22.41,1.68-.43,12,.74,12.53.22,2.47-2.25-.71-6.78-1-9.28,4.59,3.72,3.8,11.85,7.24,14.33,5.07-8.79,10.5-9.78,17.47-18.26-4.24-2.1-13.42,1.56-15.28-4.26,3.87,1.24,9.72,2.71,11.7-1.18a23.84,23.84,0,0,0-9.15.74c1.66-5.87,14.17-2.17,1.38-6.28,2.27-1.06,4.06-1.85,5.51-2.47-6.77,1.74-18.44,2.38-17-12.39,8.27,5.53,27.15,4.35,31.34.36-18.76-12.83-6.44-3.53,1.71-6.94a46.68,46.68,0,0,1-10.71-6l1.16-1c6.81.2,4.39-.17,3.47-3.15.79-.8,1.61-1.66,2.45-2.63,3.19,1.17,6.48-3.89,12.71-3.19.86-4.94-1.37-7.89-4.36-11.71,18,.29,8.14-6.53,9.54-16.37.82.14,9.52,4.21,12.25,5,.4-.47-3.06-5.74-3.22-6.44.67,2.88,12.95-3.44,16.27-3.32-2.77-5.21-7.52-2.38-12.83-5.64.35-.12,14-17.35,14-18.47-7.06-.55-15.23,2.82-24,8.22-.16-3.51-2.06-6.06-4.5-9.17,18,.29,8.14-6.53,9.54-16.37.83.14,9.52,4.21,12.25,5,.4-.47-3.06-5.74-3.22-6.44C2077.94,1088.69,2090.23,1082.38,2093.54,1082.49Zm-1164,269c-.57-.21-1.15-.4-1.7-.62a33,33,0,0,1-2.17-3.31c3.33-1.32,5.86-.28,8.87.15C934.17,1349.81,931.85,1350.68,929.49,1351.44Zm-293,14.84a13,13,0,0,1-1.2-2.17C639.72,1363.4,642.75,1360.81,636.46,1366.28ZM167.55,916.66a5.55,5.55,0,0,1,1.06,1.21l-1.47-1Zm117.17,25.53a16.25,16.25,0,0,1,4.26.37,5.6,5.6,0,0,0-2,.49,5.36,5.36,0,0,1,2.49,3.28,4.35,4.35,0,0,1-2.18,1.48A25.07,25.07,0,0,0,284.72,942.19ZM343,973.25a2.86,2.86,0,0,0,1.17.64l0,0a4.19,4.19,0,0,1-1.09-.16A2.54,2.54,0,0,0,343,973.25Zm3.55,4.09a7,7,0,0,1,4.22-3.26,8.1,8.1,0,0,1-3.19,3A4.92,4.92,0,0,0,346.51,977.34ZM774,966.86a4.27,4.27,0,0,1-.61.24,4.52,4.52,0,0,1,.3-.51C773.75,966.68,773.84,966.77,774,966.86ZM927.73,997a10.22,10.22,0,0,0-1.85,1.95l-.2,0a17.46,17.46,0,0,0-.11-2.19,2.68,2.68,0,0,0,1.62,0A5.89,5.89,0,0,0,927.73,997Zm248.71-9.91c.72.4,1.34.73,1.91,1a4.09,4.09,0,0,1-1.74,0C1176.55,987.73,1176.5,987.41,1176.44,987.07Zm271.34,28.19a6,6,0,0,1-2.44.83,1.27,1.27,0,0,1,0-1,3.81,3.81,0,0,1,1.73-.88A10.46,10.46,0,0,0,1447.78,1015.26Zm1.2,1.3c-1.17.71-1,1.33.66,1.86a1.89,1.89,0,0,1-.32,0,15.07,15.07,0,0,0-1.9-.67l-.69-.49a5.61,5.61,0,0,1,2.24-.68Zm281-225.32a59.24,59.24,0,0,0,7.41,3.09c-.55,1.78-2.67-.06-4.42.15a21.74,21.74,0,0,0-5.48-2C1727.47,792,1728.49,791.58,1730,791.24Zm22,12.1a104.44,104.44,0,0,1-11.77.06,40.09,40.09,0,0,1,3-3.61C1746.82,800.46,1750.3,801.7,1752,803.34Zm229,163.48a8.25,8.25,0,0,1-5.58,1.42c-.43-1.63-1.39-3.58-4.56-5.62,2,.13,3.35.22,4.47.2C1977.54,965.33,1979.93,967.47,1981,966.82ZM10.2,828.79l.29-.11a5.66,5.66,0,0,1,.16.76C10.5,829.22,10.36,829,10.2,828.79ZM13.5,844c-.07-1.11,7.28-1.33,8.93-1.94.82.72,1.49,1.35,2,1.85-.48.68-1,1.41-1.42,2.15a23.91,23.91,0,0,1-5.81-.62A11.15,11.15,0,0,0,13.5,844Zm6.3-4.13c.5.4,1,.8,1.45,1.19a3.59,3.59,0,0,0-2.55.23A7.89,7.89,0,0,1,19.8,839.91ZM342.88,975.06l.12,0-.15.16A1,1,0,0,0,342.88,975.06Zm23.8,29.23c-.32-.68-.67-1.35-1-2,1-.07,1.94-.1,2.7-.1a34.61,34.61,0,0,0-2.37,3.55c-1.23-.43-4-.51-4.4-2.69A10,10,0,0,1,366.68,1004.29Zm718.92-2.35a3.83,3.83,0,0,1,1.3-.73,7.52,7.52,0,0,1,.65,3.49C1086.25,1004.09,1085.07,1003.09,1085.6,1001.94Zm434.73-51.75c.06.2.13.41.2.62l-.37-.17A2.2,2.2,0,0,0,1520.33,950.19ZM28.2,884.35c-.33-.22-.64-.44-.92-.65.52.09,1,.19,1.53.3C28.61,884.13,28.4,884.23,28.2,884.35Zm.36,13.35c1.94-.9,9.49-2.06,2.15-4.67a7.82,7.82,0,0,1,3.15-.55c1.8,1.83,4.17,4.31,6,6.58a12.64,12.64,0,0,1-5.06,2l-5.9-2.64A5.08,5.08,0,0,1,28.56,897.7Zm846.33,129.36c.35,0,.68,0,1,0a2.05,2.05,0,0,1-.41,1A8.74,8.74,0,0,0,874.89,1027.06Zm604.15.88a5.81,5.81,0,0,1,2.51-1.55c.35.37.69.75,1,1.14a20,20,0,0,1,.2,3.43c-1.21-.51-2.59-1.13-4.06-1.79C1478.84,1028.77,1479,1028.36,1479,1027.94Zm-217.29-34.61.16-.09-.09.15Zm-891.7,12.21a22.85,22.85,0,0,0,.52-3.22c1.24.2,1.69.58,1.77,1A12.21,12.21,0,0,1,370.05,1005.54Zm554.81,339.38a5,5,0,0,1,.64,2.36A5.33,5.33,0,0,1,924.86,1344.92Zm802.35-538.49a15.54,15.54,0,0,1-1.6-.63l.37-.22C1726.39,805.86,1726.81,806.13,1727.21,806.43Zm-254.14,202.88c.54,0,.76,1.12.86,2.45a24.93,24.93,0,0,1-3.13-1.29A6.11,6.11,0,0,1,1473.07,1009.31Zm-24.92,17c-.12-.4-.25-.8-.39-1.21.72.29,1.51.6,2.36.92A5.09,5.09,0,0,1,1448.15,1026.34Zm-132.71-73a7,7,0,0,0,.92.1C1315.83,954.73,1315.65,954.6,1315.44,953.33Zm-49.36,41.42c-.24-1.32-1.47-1.61-3.65-.93-.08,0-.14-.1-.22-.15a13.43,13.43,0,0,0,1.07-1.21,7.79,7.79,0,0,0,.83-.62,5.75,5.75,0,0,1-.24.82c.49-.1,1.89.71,3.46,1.82A4.64,4.64,0,0,1,1266.08,994.75Zm-17.26-7h-.07c0-.1,0-.21,0-.32Zm-124.55,26.82c-2.44,0-1.39-.58-1-1.57A6.09,6.09,0,0,0,1124.27,1014.56Zm-39.16-14.07c.14-.21.31-.5.51-.84a5,5,0,0,1,.61.61A5.87,5.87,0,0,0,1085.11,1000.49Zm.25,5.77a13.09,13.09,0,0,1,2.29.06,7.06,7.06,0,0,0,3.14,5,3.92,3.92,0,0,1-2.94.22A24.31,24.31,0,0,0,1085.36,1006.26Zm-2.7,23.62a5.12,5.12,0,0,0,.16-1.74,4,4,0,0,0,1.15-.65,6.57,6.57,0,0,1,.4.62C1083.89,1028.56,1083.34,1029.14,1082.66,1029.88ZM1000,1011.19l-1-.69a5.64,5.64,0,0,0,.47-1,2.89,2.89,0,0,1-.72.63,27.49,27.49,0,0,0-2.94-6.59,17.58,17.58,0,0,1,4.58.43C1001.14,1006.68,1001.67,1009.49,1000,1011.19ZM812.36,976.63c0-.14,0-.3-.05-.49.15.11.26.23.42.35A2.79,2.79,0,0,1,812.36,976.63Zm-.16.07a3.22,3.22,0,0,1-1.05.18C809.91,975.54,809.72,975,812.2,976.7Zm-111.64,8.52-.36-.21.12-.14A2.71,2.71,0,0,1,700.56,985.22Zm-171.68-8.84a6.89,6.89,0,0,0,.15-.89c0,.21.06.43.08.64Zm-.17-2.61c-.56-.75-1.82-.79-3.82-.08a12.65,12.65,0,0,0,2.72-3.89C527.93,971,528.38,972.4,528.71,973.77Zm-46.06-5.84a4.47,4.47,0,0,1-3.6,0c.45-.66,1-1.36,1.59-2.09A8.73,8.73,0,0,0,482.65,967.93Zm-106,45.92-2.48-1.12c-.12-.58-.43-.66-.87-.39l-1.27-.56c.59-2.65.76-5.51,1.92-7.7-.2,1.89.35,2.61,1.66,2.17a9.37,9.37,0,0,1,.1-2c1.21,1.22,3.61,3.62,5.86,6.11C377.93,1009.53,378.26,1011.27,376.65,1013.85Zm-4.15-16.19a11.72,11.72,0,0,1-8.36,1.87c-.25-.43-.48-.86-.74-1.28a13.84,13.84,0,0,0,5.89-1.18C370.39,997.25,371.47,997.43,372.5,997.66Zm-27.91-9a14.91,14.91,0,0,0-1.29-2.33,16.13,16.13,0,0,1,4.24.37A6.78,6.78,0,0,1,344.59,988.68Zm4.23-3.51c-.21-.52-.51-1.16-.94-2-1.93.85-1.94,1.6,0,2.22a5.77,5.77,0,0,1-2.7-.78c1.09-1.21,1.18-2.32-.39-3.29a4.44,4.44,0,0,1,2.87-.05,5.13,5.13,0,0,0-4.55-.7h0c.23-.34.54-.87.89-1.5,2-.32,4.6-.53,5.87-.83.55.68,0,1.9-1.72,3.72,1.48-.65,2.7-1.12,3.77-1.47C350.86,982,349.9,983.68,348.82,985.17ZM284.67,966c-1.38,0-2.43,0-3.28.09a4.81,4.81,0,0,1-1.45-1.63,5.7,5.7,0,0,0,3.51-1.17C284.59,964,285.19,964.83,284.67,966ZM152.79,922.74c.59.71,1.2,1.38,1.67,2a20.63,20.63,0,0,0-3.38-1.47A4.86,4.86,0,0,1,152.79,922.74Zm-1.41-6.29c.32-.11.58-.23.86-.35-.15.19-.28.37-.4.55Zm2.41,12.32c2,.1,13.29.41,11.49,4.53-1,0-1.9,0-2.62,0a7.79,7.79,0,0,0-4.8-1.1l2.15,1.44c-1.86.41-2,.85-5-.18,1.71,1.15,2.6,2.12,2.73,2.93a12.89,12.89,0,0,1-2.55.08c-1.67-1.85-3.37-4.33-5.32-6.39C151.14,929.72,152.59,929.28,153.79,928.77Zm-5.67,3.37a11.13,11.13,0,0,1-.56-1.2,7.26,7.26,0,0,1,.7-.28C151,932.56,151.92,933.51,148.12,932.14Zm-135.9-89.5a5.31,5.31,0,0,1-3.45-2.58c3.94-.24,5-2.28,4.51-4.84,1.52.93,3.33,2.23,5.09,3.57C16.59,840.77,14.23,842.52,12.22,842.64Zm4.9-15.57a22.84,22.84,0,0,0-1.36-4.77C18,824.27,18.46,825.87,17.12,827.07ZM920,1341.87a12.6,12.6,0,0,1,3.21,1.34c.46,1.9.32,3.79-1.73,4.56a48.33,48.33,0,0,1-5.32-3.56C917.59,1343.35,918.93,1342.52,920,1341.87Zm1101-203.95a20.16,20.16,0,0,0,6.19,2.57q-2.82,2.31-5.62,4.55A17,17,0,0,1,2020.93,1137.92Zm19.65,24.83c.09.13.18.21.27.33l-.35,0C2040.53,1163,2040.54,1162.86,2040.58,1162.75Zm4-36.48c-.93-.64-1.83-1.32-2.7-2,2.37.09,4,.14,5.1.13Zm-6.85-106.79a5.54,5.54,0,0,0-.24-1.38c1.74-.74,3.39-1.43,4.9-2.14C2041.64,1017.23,2040.11,1018.41,2037.71,1019.48Zm-12,4.49c-1.08,1.06-2.15,2.15-3.18,3.19l-.87-.41C2023,1025.72,2024.39,1024.81,2025.74,1024ZM1981.51,950c.44.94-.12,1.78-1.74,2.5a41.71,41.71,0,0,0,9.19,3.71c-1.94.81-3.49,1.38-4.76,1.77C1971.45,955.93,1975.94,953,1981.51,950Zm-49-138.54.38-.19,0,.07Zm-12.86-14.28c.19,1.28,2.79,2.62-2.94,2.66a7,7,0,0,1,3.32,4.48c-3.53-1.9-6.92-5-4.58-4.91C1917.29,797.38,1918.59,797,1919.66,797.21Zm-141-35.81c4.34-1.59,5.94-1.21,6.69-.17C1782.7,761.82,1782.19,762.45,1778.69,761.4Zm-4.24,27.83-.16.09,0-.15Zm-5.15-9.83a3.12,3.12,0,0,0,0,2.85,9.45,9.45,0,0,1-3.31-2.09A7.23,7.23,0,0,0,1769.3,779.4Zm2.35,9.06a.08.08,0,0,1,0,0l-.05,0Zm-16.15,0c3.63,1.39,7.82,2.94,11.44,4.39l-.68.05c1.18,2.19,1.31,3.54,1.16,4.39-8.21-.38-12.86-1.83-17.51-4.16C1752.12,791.19,1754.14,789.52,1755.5,788.5Zm-17.6,14.73a54,54,0,0,1-6.7-1,15.2,15.2,0,0,0,3-2.79,25.34,25.34,0,0,1,6.58,0A32.2,32.2,0,0,1,1737.9,803.23Zm-7.27-15.06a11.08,11.08,0,0,1-5.22,2,8.66,8.66,0,0,1-5.65-4.22,10.08,10.08,0,0,0,5.28-1.55C1728.47,785.53,1732.31,786.1,1730.63,788.17Zm-81.54-72.57a16.94,16.94,0,0,0,2.07,1.86c-.14.07-.27.1-.4.16A8.92,8.92,0,0,1,1649.09,715.6Zm-43.53,119.34a84.49,84.49,0,0,1,8.33,6.48c-2.93-.18-5.24.44-6.45,2.34,1.14,0,6.14-.56,8.66.31-.62,1.32-4.36,1.08-8.68.13C1606.53,841.33,1606.42,838.28,1605.56,834.94Zm-6.23,6.9c-3.1-1.14-5.58-2.37-6.23-3.29a11.1,11.1,0,0,0,2.22-.32C1596.84,839.5,1598.2,840.73,1599.33,841.84Zm-32.43,63.62a7,7,0,0,1-2.44-.69C1565.3,905,1566.12,905.2,1566.9,905.46Zm-32.4.34q11.76,2.21,18.06,11.34C1547.36,915,1540.79,910.28,1534.5,905.8Zm12.14,60.93c-1.26,1-3,1.17-5,.71a11.59,11.59,0,0,0,.77-2.4c-.44.76-.91,1.51-1.38,2.26-.36-.1-.74-.23-1.12-.36-.21-.48-.49-1.06-.86-1.79a3.1,3.1,0,0,0-1.34.9l0,0c1-1.73,2.13-3.68,2.88-5.07C1544,962.08,1546,964,1546.64,966.73Zm-35.91-34.34c-.15.2-.32.4-.48.6-.08-.07-.17-.12-.26-.19C1510.28,932.66,1510.48,932.53,1510.73,932.39Zm-33.07,46.51-2-1.43A4,4,0,0,1,1477.66,978.9Zm-3.68,36c0,.2,0,.37,0,.5l-.28.16a12.62,12.62,0,0,1-1.18-1.06Zm-12.81,11c1,0,4.67-.43,5.76.52l0,0c-.17,0-.36.37-.54.88a8.1,8.1,0,0,1-1.54.11,5.87,5.87,0,0,1,1.19,1,19.87,19.87,0,0,0-.49,2.53,21.92,21.92,0,0,0-4-3.56c-.06-.12-.12-.24-.17-.36S1461.32,1026.57,1461.17,1025.92Zm-3.87.14-1.1.2c-.87-.36-1.7-.7-2.53-1a10.63,10.63,0,0,1,1.13-1.71A19.91,19.91,0,0,1,1457.3,1026.06Zm-5.07-1.32a15.45,15.45,0,0,0-4.16-.75c1.79-1.22,3-2.37,3.15-3.41.94.73,1.87,1.48,2.74,2.22A13.06,13.06,0,0,1,1452.23,1024.74Zm-1.4-6a9.14,9.14,0,0,0-.42-1.07c.3.21.55.45.88.65A3,3,0,0,1,1450.83,1018.77Zm-1.54-4.5-.28.2c-.09-.1-.17-.2-.26-.29Zm-2.67-.89a5.53,5.53,0,0,0-1.77.23c.28-.42.7-1.13,1.15-2A9.31,9.31,0,0,0,1446.62,1013.38Zm-48.25-43.2a10.11,10.11,0,0,0,1.59,1.49,3.6,3.6,0,0,1-2.54.29A11.73,11.73,0,0,0,1398.37,970.18Zm-57.71-9.56a5.73,5.73,0,0,1-.61-.06,4.27,4.27,0,0,0,.46-.35C1340.56,960.35,1340.61,960.47,1340.66,960.62Zm-14.1-13.09c-1.22,1-2.43.51-3.65-1.56.4-.78.87-1.7,1.42-2.72C1325,944.84,1326.05,946.42,1326.56,947.53Zm-3.82-1.25c1,4.85.92,5.19,2.59,9.75a7.9,7.9,0,0,1-3-.52,2.08,2.08,0,0,0-1.49-.9,9.42,9.42,0,0,1-2.8-4.68,5.21,5.21,0,0,1-2.84,1.91c-.14-1-.31-2.25-.59-3.74C1319.9,951,1320.56,950.47,1322.74,946.28Zm-55.25,53.34a36.25,36.25,0,0,0,1.75-3.72c2.13,1.64,4,3.35,4,3.64C1272.92,1000.48,1270.37,1000.28,1267.49,999.62Zm-9.58-16.9a3.84,3.84,0,0,0,.15-1.83C1261.89,983.48,1263.62,984.91,1257.91,982.72Zm-7.86-3.49c-1.26,1.08-2.53.47-3.79-1.8.54-.94,1-1.86,1.48-2.66C1248.45,976.42,1249.53,978.08,1250.05,979.23Zm-3.89-1.63c.66,3.21.87,4.55,1.33,6.18a8.23,8.23,0,0,1-4.64-1.14A34.39,34.39,0,0,0,1246.16,977.6ZM1208.78,984a30.24,30.24,0,0,0,1,3.66c-1.44,4-1,1.62-2.11-4.27Zm-33.07-5.36c.67,2.47-.51,5.12,2.27,8a8.53,8.53,0,0,1-6.83-.75A52,52,0,0,0,1175.71,978.62Zm-53.1,29.9c.05.87,0,1.76.16,2.68a5,5,0,0,0-1.14-.82c-1.79,5.1-1.27,2.8-2.41-3.46A19.46,19.46,0,0,0,1122.61,1008.52Zm-33.9-15.88c.36,1.29,1.85,2.65,5.09,4.42-1.59.86-5.49,1.21-7.6,1.58C1087.3,996.61,1088.65,993.78,1088.71,992.64Zm-3.08,23.71c.82,2.84,1.47,5.9-.5,7.64a16.57,16.57,0,0,0-3.11-6.7A10.75,10.75,0,0,1,1085.63,1016.35Zm-61.56-45.24c.26.85.6,1.84,1.11,3.22a7.35,7.35,0,0,1-1.09-.1,7.25,7.25,0,0,1-1.47-1.06A1.88,1.88,0,0,0,1024.07,971.11Zm-28,28.15a3.87,3.87,0,0,1,3.23-.91,5.84,5.84,0,0,0,.22,2.53c-.85.59-.71,1.12.43,1.58,0,0,0,.1,0,.14C998.49,1002.48,995.23,1001,996.06,999.26Zm-111,20.42-.76-.44C886.59,1017.31,886.34,1018,885.1,1019.68Zm-7.06-5.29a15.14,15.14,0,0,0,1.39,1.24c-.28-.07-.52-.1-.77-.14l-.8-.56Q878,1014.65,878,1014.39Zm-6.54-2.3.47.25c-.19.16-.31.31-.48.46h-.63C871.08,1012.57,871.3,1012.34,871.5,1012.09Zm-5,6.61-.7-.71a5.7,5.7,0,0,1,.71-.59l.08.06s0-.08,0-.11a6.18,6.18,0,0,1,1.12-.63C867.35,1017.38,866.93,1018,866.55,1018.7Zm-1.7-2.34c-.06.08-.14.16-.21.24C864.46,1016.31,864.49,1016.2,864.85,1016.36ZM843,973.08a9.57,9.57,0,0,1-1.39,2c-.12-.85-.27-1.85-.48-3C841.86,972.49,842.47,972.81,843,973.08Zm-27.29-10.84c-1.53.82-5.16,1.18-7.32,1.53.9-.75,1.65-2.33,2.9-4.73A14.89,14.89,0,0,0,815.74,962.24Zm-8.88,2.06a5.47,5.47,0,0,1,2.61,5,1.52,1.52,0,0,0-1.46-.19,7.71,7.71,0,0,1,1.48.93v0c-7.9.47.37-1.28-4.69-4.1-1.8,5.1-1.27,2.8-2.41-3.46C804.48,963.64,805.84,964.25,806.86,964.3Zm-37.69-8.73c2.65,2.7.57,5.61,2.51,8.85-2.74-.07-6.29-.11-8-.78C768.87,959.94,770.08,957.68,769.17,955.57Zm-31.31,9.91a7.54,7.54,0,0,1-1.92,1c-.1-.65-.21-1.36-.35-2.14C736.47,964.8,737.21,965.19,737.86,965.48ZM701.78,973c.29,1,.58,2,.78,3a5.94,5.94,0,0,1-3.27-1.41A11.59,11.59,0,0,0,701.78,973Zm-30.47,36.41c-4.37-4-2.88-1.22-3.66-4.71A6,6,0,0,1,671.31,1009.42Zm-20.4-9.13a21.72,21.72,0,0,0,3.8,2.73c-2.48,2.2-5.52,3.15-9.74,1.21A43,43,0,0,0,650.91,1000.29Zm-84.15-45.08-.06.06-.1-.06Zm-41.24,9.88a13,13,0,0,1,3-9.3c3.74,3.42-.67,7.19,5,11.52-2,1.07-3.87-.3-6.13-.61a4.36,4.36,0,0,0,0,2.26c-2.08,3.36-4.41,6.69-6.43,10.17-2.15-2.15-3.27-3.54.09-1.24a17.43,17.43,0,0,0-1.15-4.92c.79-4,1.16-8.18,2.89-11.44C522.48,964.62,523.39,965.81,525.52,965.09Zm-58.93-8.35c-.12-1.88,12.88-2.2,14.91-3.29-1.5-1.92-3.64-2.31-6.4-1.15a11.52,11.52,0,0,1,5.71-4.92c-.92,1.94,0,3.67,4.85,6.31-2.13,1.15-8.42,1.39-9,2,3.8,2.53,2.22,5.26,3,8.27a31.1,31.1,0,0,1-2.69,3.48c-.17,0-.33-.07-.5-.09a2.18,2.18,0,0,0-.13.75c-2.93,2.9-6.54,4.32-11.69,1.95C473.88,964.72,479.61,959.91,466.59,956.74Zm-87.1,58.38a6.25,6.25,0,0,1,2.73-4c2.46,2.78,4.54,5.54,4.36,6.76A58.75,58.75,0,0,1,379.49,1015.12ZM360.44,985a9.39,9.39,0,0,1,5.76-4.2c.87,0,1.24,1.82,1.4,4a46.42,46.42,0,0,0-2.36,4.46c-.69-.71-1-.91-2.53-.73a4.18,4.18,0,0,1-.41-.94c-1,.32-1,.72-.83,1.12l-2.37.39a6.28,6.28,0,0,0-.14,3.21c-3.79-3.65-2.37-1-3.13-4.09a53,53,0,0,0-7.76,1.18c-.69-1.65,4.15-6.5,7.74-9.63C359.22,979.94,357.47,983.93,360.44,985Zm-6.87-19c-3.5.21-2.85-.3-7.5.08,3.26,6.06-1.43,5.72,2,6.1a15.23,15.23,0,0,1-2.16,2.88c1-2.32,1.29-4-1-2-.18-.41-.4-.87-.69-1.43-.89.4-1.35.77-1.42,1.12a1.63,1.63,0,0,0-1.64-.76,7.87,7.87,0,0,0-.37-1.94l.13-.2a4.3,4.3,0,0,1,3-.11,5.1,5.1,0,0,0-2.49-.92,11.78,11.78,0,0,0,.95-2.79c-.54.93-1.12,1.86-1.7,2.78-.13,0-.25,0-.38,0-.11-.26-.23-.52-.35-.77a45.74,45.74,0,0,0,2.16-4.27,12.11,12.11,0,0,1,2.78.48c.22-.85-.25-2.8-.95-4.82,2.73.88,6.09,1.74,10.26,2.9C346.79,966.55,353.05,962.86,353.57,966ZM285,937.87a4,4,0,0,1,3.92-.79c.23.83.5,1.71.75,2.61l-.34-.68q-2.88,1.28,0,2.22C288,941.35,284.07,939.8,285,937.87Zm3.35,14.88a5,5,0,0,0-.12-1.85,8.23,8.23,0,0,1,.86,4.37,12.76,12.76,0,0,0-2.21-.55v0a40.39,40.39,0,0,1-3.61-2.17A8.55,8.55,0,0,1,288.32,952.75Zm-54.16-40.21c.07.14.13.28.19.41-.25.07-.49.13-.76.23C233.8,913,234,912.75,234.16,912.54Zm-33.49-26.69a8,8,0,0,1-2.86-.5,12.14,12.14,0,0,0,2.18-1.41C200.18,884.49,200.4,885.11,200.67,885.85Zm-34.9,31.79a25.66,25.66,0,0,0,3.75,2.51c0,.18,0,.38.07.56a11.55,11.55,0,0,0-1.26,1.29q-1.32-2.49-4.73-2.33l-.64-.42C163.61,918.82,164.61,918.28,165.77,917.64ZM30.17,820.12c-11.59-.19-9.82,2.34-14.92.93a18.1,18.1,0,0,0-1.7-3.29c4.85-.36,7.61,2.74,4.57-3.18-1.92.85-1.93,1.6,0,2.22-1.25.12-5.2-1.43-4.3-3.36a4,4,0,0,1,.83-.56C20.89,813.29,32.55,814.66,30.17,820.12Zm-20.26-17,.45.53a8.89,8.89,0,0,0-1.25.37C9.41,803.68,9.65,803.37,9.91,803.07Zm-119.53,288.11c-.47.66-1,1.29-1.49,1.92l-1.45-.39A18.66,18.66,0,0,0-109.62,1091.18Zm-7.08,3.16c-.45,1.34-3.19.55,3,1.56a36.26,36.26,0,0,1-4.29,3.61c-.89-.41-1.8-.89-2.7-1.41C-120.38,1096.22-118.78,1095.21-116.7,1094.34Zm-12.69-2.24a9.06,9.06,0,0,1,3.8-.33c3,.91,2.5,2.26.68,3.64C-126.54,1094.28-128.07,1093.13-129.39,1092.1Zm224.86,185c-.78-.67,1-1,.57-1.87-5.48,1.36-24.39,12.93-21.48,12.75-.45,1.27-6.34-.59-14-3.59,3.83-5.63,7.78-11.14,12-10.37a20.79,20.79,0,0,0,5.46.22c-1,.76-1.94,1.52-3,2.22,7.73-.83,18.43-4.83,23.17-3.24C93.48,1275.35,100.5,1273.79,95.47,1277.1ZM515,1384.38a5.6,5.6,0,0,1,.4,6.14C514.26,1388.4,513.58,1386.05,515,1384.38Zm4.67,12a6.25,6.25,0,0,1,1.32-1c.07.17.13.34.19.52Zm117.07-36.65a8.87,8.87,0,0,1,1-.31c-.89.77-1.83,1.5-2.8,2.19A2.71,2.71,0,0,1,636.74,1359.75Zm410-25.41.3-.39a3.62,3.62,0,0,1,0,.87C1046.94,1334.66,1046.84,1334.5,1046.74,1334.34Zm40.3,7.14a5.26,5.26,0,0,0-1-1.89,21.25,21.25,0,0,1,3.68.06A5.69,5.69,0,0,1,1087,1341.48Zm167.41-21.72c.6.19,1.26.39,2,.54a16.67,16.67,0,0,0,3.56,1.61C1257.6,1321.94,1255.16,1322,1254.45,1319.76Zm62.53,15.9.3-.64C1318.48,1335.72,1317.85,1335.58,1317,1335.66Zm1.4-4.36a6.8,6.8,0,0,0-1.29-5.51,15,15,0,0,1,2.87,0A8.42,8.42,0,0,1,1318.38,1331.3Zm38.17-5a5.56,5.56,0,0,0-1.25-2.74c.8-.2,4.73.18,6.63.21C1360.76,1325,1358.55,1325.6,1356.55,1326.25ZM2048.73,1123a7.15,7.15,0,0,1-.65-6.47c3.16,4.58,5.82.83,10.44-.67C2055.31,1118.05,2052,1120.46,2048.73,1123Z"/>
        <path class="cls-4" d="M1591.56,829.27c2.75,3.79,5.17,5.67,7.26,5.71A67,67,0,0,0,1591.56,829.27Z"/>
        <path class="cls-4" d="M1617.54,816.77c-.5,0-1,.07-1.58.15A13.23,13.23,0,0,0,1617.54,816.77Z"/>
        <path class="cls-4" d="M1560.91,841.47c-.08.26-.12.51-.18.77C1561.58,842,1561.8,841.74,1560.91,841.47Z"/>
        <path class="cls-4" d="M1553.07,842.57a6.69,6.69,0,0,1-1.81-2.94C1548.89,841.4,1550.49,842.26,1553.07,842.57Z"/>
        <path class="cls-4" d="M1544.35,890c-.07.26-.12.51-.17.76C1545,890.56,1545.25,890.28,1544.35,890Z"/>
        <path class="cls-4" d="M1536.51,891.11a6.69,6.69,0,0,1-1.81-2.94C1532.33,890,1533.93,890.8,1536.51,891.11Z"/>
      </g>
    </g>
  </g>
</svg>
