<svg id="Layer_1" data-name="Layer 1" xmlns="http://www.w3.org/2000/svg" xmlns:xlink="http://www.w3.org/1999/xlink" viewBox="0 0 1920 1080">
  <defs>
    <style>
      .cls-1 {
        fill: none;
      }

      .cls-2 {
        clip-path: url(#clip-path);
      }

      .cls-3 {
        fill: #44655e;
      }

      .cls-4 {
        fill: #507781;
      }

      .cls-5 {
        fill: #858786;
      }

      .cls-6 {
        fill: #b2c9cd;
      }

      .cls-7 {
        fill: #61958d;
      }

      .cls-8 {
        fill: #4e8190;
      }

      .cls-9 {
        fill: #3c5e58;
      }

      .cls-10 {
        fill: #b3d9e3;
      }

      .cls-11 {
        fill: #48727d;
      }

      .cls-12 {
        fill: #415018;
      }

      .cls-13 {
        fill: #274149;
      }

      .cls-14 {
        fill: #a37345;
      }

      .cls-15 {
        fill: #5d584f;
      }

      .cls-16 {
        fill: #828483;
      }

      .cls-17 {
        fill: #404e48;
      }

      .cls-18 {
        fill: #a58540;
      }

      .cls-19 {
        fill: #b3cccf;
      }

      .cls-20 {
        fill: #d3a445;
      }

      .cls-21 {
        fill: #b6906a;
      }

      .cls-22 {
        fill: #799538;
      }

      .cls-23 {
        fill: #3f6f3e;
      }

      .cls-24 {
        fill: #2b573b;
      }

      .cls-25 {
        fill: #a3784e;
      }

      .cls-26 {
        fill: #a68847;
      }

      .cls-27 {
        fill: #485550;
      }

      .cls-28 {
        fill: #d0a54e;
      }

      .cls-29 {
        fill: #645e56;
      }

      .cls-30 {
        fill: #93a544;
      }
    </style>
    <clipPath id="clip-path">
      <rect class="cls-1" x="-2" y="1.15" width="1924.43" height="1087.85"/>
    </clipPath>
  </defs>
  <g id="Main">
    <g class="cls-2">
      <g id="layer_4">
        <g>
          <g>
            <polygon class="cls-3" points="838.21 802.3 907.52 802.3 884.86 783.91 876.96 781.64 874.32 779.75 866.1 790.5 856.4 794.56 838.21 802.3"/>
            <path class="cls-4" d="M867.21,747.36,822.16,802.3h16.05l18.19-7.74,9.69-4.06,8.23-10.75,2.64,1.89,7.9,2.27,22.66,18.39h72.19l-41.34-36.73L925.2,739.34l-4.42-.43-21.69-13.34-4.85.84-.51-6.38-6.4-12.22a5,5,0,0,0-.55,1c0,.52-8.74,16.21-8.74,16.21l-3.53.93Z"/>
            <polygon class="cls-5" points="1021.26 603.53 1019.71 603.53 1019.71 607.83 1023.64 604.02 1025.96 607.47 1030.17 601.58 1030.91 602.55 1034.51 595.28 1031.64 598.3 1028.3 598.3 1027.15 600.88 1025.68 600.88 1021.26 603.53"/>
            <polygon class="cls-6" points="910.51 664.07 908.88 667.09 910.25 669.87 914.33 673.56 914.72 677.52 916.12 678.79 922.81 678.15 929.85 686.03 927.73 678.29 921.22 670.7 917.07 657.49 916.05 657.75 912.86 663.23 910.51 664.07"/>
            <polygon class="cls-6" points="1011.25 621.86 1011.21 622.11 1017.27 617.56 1017.27 622.22 1020.41 619.03 1021.05 615.84 1026.49 609.55 1033.85 607.83 1037.08 610.04 1034.51 595.28 1030.91 602.55 1030.17 601.58 1025.96 607.47 1023.64 604.02 1019.71 607.83 1019.71 603.53 1019.67 603.53 1011.25 621.86"/>
            <path class="cls-5" d="M1017.27,617.56l-6.06,4.55-1.47,8.61-9.82,21.79-3.19-.54-7,5.57v4.09l-13.92,28.86-8.59,3.1v4.17c0,.45-5.57,11.61-5.57,11.61l-10.79-14.63-1.72,1.84L931.49,692l-1.64-6-7-7.88-6.69.65-1.4-1.28-.39-4-4.08-3.69-1.37-2.78-1.82,3.35-2.55,13.13-1.85,1-7.4,12.31s-6,8.1-7.93,11h0l6.4,12.22.51,6.38,4.85-.84,21.69,13.34,4.42.43,13.17,26.23,41.34,36.73h109.74l-26.61-73.57-19.17-108-4.47,1.38L1037.08,610l-3.23-2.21-7.36,1.72-5.44,6.29-.64,3.19-3.14,3.19Z"/>
          </g>
          <g>
            <path class="cls-4" d="M1120.81,699.67,1105,802.3h96.4l-17.52-36.61-14.28-44.08-6.4-34.56-2.1-5L1165,660l2.82-16h-4.12l-3.25,1.53s-7.51-.7-7.51-.46-2.59,5.84-2.59,5.84l-1.59.3-20,46.34Z"/>
            <path class="cls-5" d="M1165,660l-3.89,22.1,2.1,5,6.4,34.56,14.28,44.08,17.52,36.61h56.35l-5.85-11.59-11.52-16.81-8.14-34.61-4.42-11.86-7.1-5.44-1.47-3.06s-2.29-1.47-2.59-1.76c-.06-.07-.38-1.24-.85-3l-2.28,2.66-5.8-2.07-7.08,4.79-2.48,5.31L1188,718.23l-18.84-26.93-.53-12.39L1165,660Z"/>
            <path class="cls-6" d="M1167.8,644,1165,660h0l3.63,18.92.53,12.39L1188,718.23l10.16,6.61,2.48-5.31,7.08-4.79,5.8,2.07,2.28-2.66c-1.59-6.23-4.89-20-4.89-20l-3.25-3.06-1.77-.66-.34-1.3-2,1.24-1.89,5.44-3.65,1.66-8.34-.6-4.12-4.08-.59-1.6-2.53-.29L1178,680.61l-1.76-6.44-4.32-3.36-3.25-14.65Z"/>
          </g>
          <g>
            <polygon class="cls-7" points="1205.55 802.3 1213.53 802.3 1204.51 799.66 1202.75 796.56 1206.96 797.09 1202.3 794.33 1196.75 787.42 1191.08 778.68 1174.54 760.98 1173.95 763.7 1167.93 758.49 1164.28 754.6 1155.79 752.79 1151.46 753.64 1159.07 761.44 1157.3 769.61 1175.37 780.04 1176.79 783.4 1195.56 798.11 1205.55 802.3"/>
            <polygon class="cls-8" points="1191.38 802.3 1179.26 787.42 1163.55 779.38 1144.78 764.63 1144.78 767.12 1139.47 765.57 1152.69 778.92 1167.29 788.42 1167.57 788.61 1179.49 796.39 1185.59 802.3 1191.38 802.3"/>
            <polygon class="cls-9" points="1122.23 799.47 1122.23 802.3 1181.81 802.3 1173.48 796.28 1155.05 791.9 1146.44 793.79 1132.86 793.46 1126.35 795.45 1122.23 799.47"/>
            <polygon class="cls-8" points="1213.72 793.77 1208.76 792.97 1208.11 794.39 1208.76 797.32 1206.96 797.09 1202.75 796.56 1204.51 799.66 1213.53 802.3 1234.27 802.3 1222.96 791.9 1219.31 784 1215.76 782.57 1206.79 771.18 1193.31 758.49 1190.89 752.52 1183.66 742.08 1180.81 740.36 1180.15 740.89 1185.64 757.6 1202.92 776.11 1213.72 793.77"/>
            <path class="cls-10" d="M1208.1,794.39l.66-1.42,5,.8-10.8-17.66-17.28-18.51-5.49-16.71.66-.53,2.85,1.72,7.23,10.44-4.89-12.1-13.58-13.92-6.81-11.76c.73,4.87,1.43,9.68,1.43,9.68l2.12,9.92-2.46,6.74,2.46,6.23-2.46,3.34-10.91,2.14,8.48,1.81,3.66,3.89,6,5.21.59-2.72,16.54,17.7,5.67,8.74,5.55,6.91,4.66,2.76,1.8.23Z"/>
            <polygon class="cls-7" points="1098.06 755.53 1097.13 758.49 1106.88 766.16 1092.11 766.16 1092.94 770.77 1087.39 773.37 1096.55 784.95 1112.79 793.79 1113.37 798.64 1117.74 802.3 1122.23 802.3 1122.23 799.47 1126.35 795.45 1132.86 793.46 1145.97 791.9 1147.5 788.72 1161.09 786.48 1167.29 788.42 1152.69 778.92 1139.47 765.57 1123.59 761.44 1126.35 756.96 1123.29 751.52 1123.29 750.11 1120.81 748.69 1121.87 745.5 1100.51 721.76 1104.99 732.62 1098.62 739.13 1100.51 745.86 1098.62 753.77 1098.06 755.53"/>
            <polygon class="cls-8" points="1145.97 791.9 1132.86 793.46 1146.44 793.79 1155.05 791.9 1173.48 796.28 1181.81 802.3 1185.59 802.3 1179.49 796.39 1167.57 788.61 1167.29 788.42 1161.09 786.48 1147.5 788.72 1145.97 791.9"/>
            <polygon class="cls-9" points="1191.38 802.3 1205.55 802.3 1195.56 798.11 1176.79 783.4 1175.37 780.04 1157.3 769.61 1154.11 767.76 1132.69 750.45 1121.87 745.5 1120.81 748.69 1123.29 750.11 1123.29 751.52 1126.35 756.96 1123.59 761.44 1139.47 765.57 1144.78 767.12 1144.78 764.63 1163.55 779.38 1179.26 787.42 1191.38 802.3"/>
            <polygon class="cls-10" points="899.17 796.75 880.27 799.34 874.32 802.3 895.62 802.3 913.45 793.56 917.58 786.82 899.17 796.75"/>
            <polygon class="cls-9" points="909.44 802.3 1117.74 802.3 1113.37 798.64 1112.79 793.79 1096.55 784.95 1086.33 779.38 1080.31 778.58 1026.22 750.58 1008.51 736.06 992.59 718.8 993.76 692.96 991.42 687.86 987.62 714.51 983.17 723.8 973.35 726.29 957.09 740.7 954.07 745.14 944.51 753.88 940.73 762.04 964.81 750.45 972.25 748.22 980.18 744.21 982.53 743.61 974.33 750.65 965.17 758.49 957.62 767.35 947.57 779.28 915.6 797.37 914.15 798.17 909.44 802.3"/>
            <polygon class="cls-7" points="972.25 748.22 964.81 750.45 940.73 762.04 944.51 753.88 954.07 745.14 957.09 740.7 946.87 749.75 916.85 771.54 899.49 780.32 895.94 784.65 889.39 786.42 858.83 802.3 874.32 802.3 880.27 799.34 899.17 796.75 917.58 786.82 913.45 793.56 895.62 802.3 909.44 802.3 914.15 798.17 915.6 797.37 947.57 779.28 957.62 767.35 965.17 758.49 974.33 750.65 982.53 743.61 980.18 744.21 972.25 748.22"/>
            <polygon class="cls-8" points="1019.95 644.71 1014.08 654.46 1010.38 672.87 1003.81 675.19 1002.66 679.61 997.63 680.42 991.42 687.86 993.76 692.96 992.59 718.8 1008.51 736.06 1026.22 750.58 1080.31 778.58 1086.33 779.38 1096.55 784.95 1087.39 773.37 1092.94 770.77 1092.11 766.16 1106.88 766.16 1097.13 758.49 1098.06 755.53 1096.6 753.77 1078.89 743.5 1077.13 739.49 1071.68 733.94 1068.73 728.96 1057.16 713.98 1032.49 693.42 1025.88 683.73 1027.17 679.61 1020.67 665.56 1021.26 654.57 1026.75 641.69 1023.75 642.41 1019.95 644.71"/>
            <path class="cls-8" d="M1133.92,672.17l-2.36,2.59-7,.83-5.31-12.39-3.89-4.38-1,2.59-1.77-.7-2.25,5.55-4.25,2-21.26-16.94-12-12.52h-1.78l-4.36,4.72-1.76-1.29L1052,648l1.78-6-7.1-21v-3.36l-3.31,2.08-6.66,12-2.48,2.83-1.41,7.61,1.24,3.38-3.55,19.13,10.82,14.35h2.29l1.07,5.31,10.26,7.93,35.44,20,10.16,9.57,21.36,23.74,10.82,5,21.42,17.31,3.19,1.85,1.77-8.17-7.61-7.8,4.33-.85,10.91-2.14,2.46-3.34-2.46-6.23,2.46-6.74-2.12-9.92s-.7-4.81-1.43-9.68l-14.81-25.57-7.27-14.2-3.7-2-5.91-4.72Z"/>
            <polygon class="cls-9" points="1232.06 787.65 1207.38 766.99 1204.07 762.14 1197.45 757.79 1192.38 752.24 1186 740.42 1190.89 752.52 1193.31 758.49 1206.79 771.18 1215.76 782.57 1219.31 784 1222.96 791.9 1234.27 802.3 1247.28 802.3 1241.73 796.39 1235.36 793.33 1232.06 787.65"/>
            <polygon class="cls-10" points="1096.6 753.77 1098.06 755.53 1098.62 753.77 1100.51 745.86 1098.62 739.13 1104.99 732.62 1100.51 721.76 1090.35 712.19 1054.91 692.15 1044.64 684.22 1043.58 678.91 1041.29 678.91 1030.47 664.56 1034.02 645.43 1032.78 642.05 1034.19 634.44 1028.17 641.35 1026.75 641.69 1021.26 654.57 1020.67 665.56 1027.17 679.61 1025.88 683.73 1032.49 693.42 1057.16 713.98 1068.73 728.96 1071.68 733.94 1077.13 739.49 1078.89 743.5 1096.6 753.77"/>
            <polygon class="cls-10" points="1162.7 734.55 1163.51 735.52 1163.81 734.55 1164.84 730.23 1163.81 726.55 1167.29 723 1164.84 717.06 1159.29 711.83 1139.92 700.88 1134.31 696.54 1133.73 693.64 1132.48 693.64 1126.56 685.8 1128.5 675.34 1127.83 673.49 1128.6 669.33 1125.31 673.11 1124.53 673.3 1121.53 680.34 1121.21 686.34 1124.76 694.02 1124.05 696.27 1127.67 701.57 1141.15 712.81 1147.47 721 1149.09 723.72 1152.06 726.75 1153.03 728.94 1162.7 734.55"/>
            <polygon class="cls-10" points="1133.92 672.17 1133.92 668.28 1139.83 673 1143.53 674.97 1141 670.04 1136.75 665.92 1133.79 665.92 1132.73 663.07 1128.84 668.62 1127.18 668.85 1122.36 657.99 1119.17 648.19 1112.49 643.03 1110.09 637.18 1107.8 636.03 1106.2 641.43 1101.87 643.39 1094.77 621.41 1088.39 605.57 1082.91 599.09 1078.91 591.93 1077.59 586.08 1074.23 584.21 1072.36 582 1068.73 582.45 1065.01 592.71 1063.95 589.18 1062.35 591.31 1057.76 595.12 1057.76 606.72 1054.57 610.44 1050.13 615.39 1046.64 617.56 1046.64 620.92 1053.74 641.94 1051.96 647.96 1064.97 642.18 1066.73 643.47 1071.09 638.75 1072.87 638.75 1084.9 651.27 1106.16 668.21 1110.41 666.26 1112.66 660.71 1114.43 661.41 1115.39 658.82 1119.28 663.2 1124.59 675.59 1131.56 674.76 1133.92 672.17"/>
            <path class="cls-10" d="M1146,753.46l.45-1,3.34.54-7.29-11.92-11.66-12.49-3.7-11.27.45-.36,1.92,1.16,4.87,7-3.29-8.16-9.17-9.39-4.59-7.93c.49,3.28,1,6.52,1,6.52l1.44,6.7-1.67,4.55,1.67,4.2-1.67,2.25-7.35,1.45,5.72,1.22,2.46,2.62,4.06,3.52.4-1.84,11.16,12,3.83,5.89,3.75,4.66,3.14,1.87,1.22.16Z"/>
            <path class="cls-10" d="M1120.92,715.92l0-1.49,2.94.26-10.91-16.41-14.69-16.55-7.73-16,.21-.6,2,1.4,6.91,9.61-6.1-11.52-11.37-12.38-7-11c1.78,4.76,3.52,9.47,3.52,9.47l4,9.66.56,7,3.11,5.94-.4,3.59-5.36,3.33,5.15.87,3.1,3.48,4.77,4.53-.45-2.78,14.06,15.83,5.58,8.08,5,6.28,3.33,2.24,1,0Z"/>
          </g>
          <g>
            <path class="cls-11" d="M945.93,803.79h37.8c.95-2.81,2.27-8.19-.6-11.06-4-4,1.53-3.65,5.17-5s1.44-2.49.72-4.32,2.85-5,3.42-8,4.85-3.55,6.14-7.67c1-3.15,5.45-5.08,15.5-2.78-2.66-1.83-5-3.36-7-3.36a38,38,0,0,0-13.23,3c-1.27.51-3,1.21-4.8,2a2.81,2.81,0,0,0,.32,1.59c1.66,3.3-3.68,9.52-5.19,11s-4.14,2.79-4.14,4.25-1.06,2.19-2.83,4-8.74,2.25-12.75,4.48-11.23,6.61-11.23,6.61Z"/>
            <path class="cls-8" d="M988.3,787.78c-3.64,1.3-9.19.94-5.17,5,2.87,2.87,1.55,8.25.6,11.06h86.06c-1.4-6.08-5.89-6.57-5.89-9.87s-1.78-6.61-3.78-7.1-6.72-4.63-9.69-7.61-10.8-2.23-12.4-3.82-5.78-2.85-12.75-4.25c-3.93-.81-7.78-3.7-11.18-6.08a0,0,0,0,0,0,0c-10.05-2.3-14.5-.37-15.5,2.78-1.29,4.12-5.54,4.72-6.14,7.67s-4.12,6.15-3.42,8S991.93,786.48,988.3,787.78Z"/>
            <path class="cls-10" d="M996,760.74c-3,1.58-6.72,3.38-6.93,5.85,1.77-.75,3.53-1.45,4.8-2a38,38,0,0,1,13.23-3c1.95,0,4.33,1.53,7,3.36a0,0,0,0,1,0,0c3.4,2.38,7.25,5.27,11.18,6.08,7,1.4,11.16,2.65,12.75,4.25s9.42.85,12.4,3.82,7.67,7.15,9.69,7.61,3.78,3.79,3.78,7.1,4.49,3.79,5.89,9.87h11.69l-4.42-8.34L1076,791.9l-3.89-5.42s-14-4.31-16.14-6.44-2.29-5.37-7.6-6.14-15.14-4.23-16.84-5.91-7.78-4.29-12.26-6.91-5.45-4.14-7.93-5.55-5-1.12-6.72.6S999.65,758.85,996,760.74Z"/>
          </g>
        </g>
        <g>
          <polygon class="cls-12" points="131.64 829.51 149.06 787.98 172.17 775.61 183.88 744.16 190.94 760.83 212.85 764.18 226.21 832.79 127.44 832.79 131.64 829.51"/>
          <polygon class="cls-5" points="703.18 616.06 723.07 570.1 732.53 547.65 733.88 543.21 737.18 543.75 743.79 557.46 756.85 562.03 760.75 566.47 769.46 563.64 776.81 571.44 782.82 585.55 789.57 589.45 824.55 647.38 831.45 648.86 837.75 647.52 843.91 650.2 846.76 646.98 851.57 649 871.53 688.38 896 713.11 945.23 824.94 593.38 824.94 668.43 606.59 703.18 616.06"/>
          <path class="cls-5" d="M230.11,740.26l3.16-40.73,12.61-44.76,10.8-30.37,9.46-62.77,6.31-6,2.13,1.41,3.94,8.87,5.41.81s4.61-4.44,4.61-5.35,4.62-11.15,4.62-11.15l6.08,2.69,14-7.16h1.46l3.83-3v-8.17l9-6s9.45-23.79,9.45-25,8.67-39.62,8.67-39.62h4.84l9.69,13.41,12,18.85,5.52,2.72,9.12-13.71L391,470.6l2.71,1.11,4.39-27.83,2.25-1.91,14.86,27.12,41.88,268.75Z"/>
          <g>
            <polygon class="cls-13" points="772.26 728.74 852.57 834.96 771.56 834.96 714.33 761.84 710.12 736.82 699.9 720.86 661.16 660.23 646.03 624.52 656.08 634.39 700.23 671.21 733.25 691.68 772.26 728.74"/>
            <polygon class="cls-14" points="714.33 761.84 771.56 834.96 604.31 834.96 559.62 720.03 559.62 708.71 562.54 699.66 550.27 678.76 540.27 661.77 536.33 653.4 572.91 684.66 588.21 686.55 621.22 705.9 649.75 709.92 666.56 707.5 699.9 720.86 710.12 736.82 714.33 761.84"/>
            <polygon class="cls-15" points="661.16 660.23 699.9 720.86 666.56 707.5 649.75 709.92 621.22 705.9 588.21 686.55 572.91 684.66 536.33 653.4 507.15 591.37 505.36 581.69 511.2 572.84 511.2 566.4 461.81 478.48 454.94 456.71 477.21 418.38 481.48 398.25 495.69 414.75 499.74 431.5 503.58 405.46 511.9 412.14 515.95 407.5 521.58 428.06 525.84 409.33 531.03 411.95 529.25 458.3 537.79 471.75 552.97 484 569.18 504.03 577.99 527.16 583.72 530.21 599.93 535.72 614.36 554.88 639.81 618.42 646.03 624.52 661.16 660.23"/>
            <polygon class="cls-16" points="620.03 542.21 656.08 634.39 646.03 624.52 639.81 618.42 614.36 554.88 599.93 535.72 583.72 530.21 600.69 531.42 608.04 537.76 620.03 542.21"/>
            <polygon class="cls-17" points="559.62 720.03 604.31 834.96 303.96 834.96 356.97 776.65 403.01 757.2 412.14 760.15 440.52 755.31 444.79 744.81 502.66 731.94 533.03 719.84 545.68 707.74 550.27 678.76 562.54 699.66 559.62 708.71 559.62 720.03"/>
            <polygon class="cls-18" points="540.27 661.77 550.27 678.76 545.68 707.74 533.03 719.84 502.66 731.94 444.79 744.81 440.52 755.31 412.14 760.15 403.01 757.2 419.82 750.03 436.25 739.97 443.43 711.32 433.55 692.99 429.06 667 430.79 640.24 444.14 596.74 451 589.48 444.73 584.4 456.13 573.9 456.4 568 445.49 548.64 440.08 545.4 461.81 495.42 461.81 478.48 511.2 566.4 511.2 572.84 505.36 581.69 507.15 591.37 536.33 653.4 540.27 661.77"/>
            <path class="cls-11" d="M511.9,384.56,531,412l-5.19-2.62-4.27,18.73L516,407.5l-4.05,4.64-8.32-6.68-3.84,26-4.05-16.75-14.21-16.5-4.27,20.13L473.7,389c.75-.68,3.51-45.44,3.51-45.44l23,39.34-1.35-10.06Z"/>
            <path class="cls-8" d="M482.56,342.46l29.34,42.1-13.08-11.71,1.35,10.06-23-39.34s-2.76,44.76-3.51,45.44l-6.6-55.69-11.29-7.89,5.73-3.15,6,1,11.56,7.65Z"/>
            <path class="cls-14" d="M473.7,389l3.51,29.37-17.35,16.16,3.84-12.29-3.84-15.34-8.75,2.42-2.92-9.09-9,2.66-.91-14.13-8.33,19.16-18.69,28.21,12.59-37.69,1.62-19-3.84-3,2.49-7.26,6.54-12.29,6.75-1.65v6.49l4.92-3.24,3.62,6.82,2.92,17.18,11.51-10.89S472.45,389,473.64,389Z"/>
            <path class="cls-14" d="M477.21,418.38l-22.27,38.33,6.87,21.77v16.94l-21.73,50,5.41,3.24L456.4,568l-.27,5.9-11.4,10.5,6.27,5.08-6.86,7.26-13.35,43.5-4.38,14.32-9.62,50.81-12,3.24-15.62-10.5-23.13,3L330.92,723.9l-27.88,11H274.18L246,750.52l-24.42,10.55-9.19,4H189.83l-12.59-17.17L155,738.76c13.24-17.86,37.94-51.63,52.26-73.84l13.51-6.82v4.64l11.08,6.87,71.11-53.8-8.54-6.88-1.83-2.8,10.59-26.42,3.62,8,26.1-47.37,10.59-7.45,3.62,7.45,11.24-27.44V488.35l4.06-8.27L364,468.32,371.45,454l9-3.2,8.1-25.55L402.09,397l5.79,2,3.83-6.63h4.49l5.4-15.92,3.84,3-1.62,19-12.59,37.69,18.69-28.21,8.33-19.16.91,14.13,9-2.66,2.92,9.09,8.75-2.42,3.84,15.34-3.84,12.29Z"/>
            <path class="cls-19" d="M467.1,333.32,473.7,389h-.06c-1.19,0-13.29-17.37-13.29-17.37l-11.51,10.89-2.92-17.18-3.62-6.82-4.92,3.24v-6.49l-6.75,1.65,4.27-14.52,5.62-3.43,2.05-4.45,12.81-8.86.43-.24Z"/>
            <polygon class="cls-18" points="433.55 692.99 443.43 711.32 436.25 739.97 397.72 752.7 380.64 761.55 367.78 762.95 351.35 756.52 321.2 758.31 314.66 761.55 308.77 756.13 243.27 757.73 221.55 761.07 245.97 750.52 274.18 734.94 303.04 734.94 330.92 723.9 366.05 701.07 389.18 698.11 404.8 708.61 416.79 705.37 426.41 654.57 430.79 640.24 429.06 667 433.55 692.99"/>
            <path class="cls-20" d="M436.25,740,419.82,750,403,757.2l-46,19.45L304,835H101.85L146,750.81s3.51-4.7,9-12l22.27,9.1L189.83,765h22.53l9.19-4,21.72-3.34,65.5-1.6,5.89,5.42,6.54-3.24,30.15-1.79L367.78,763l12.86-1.4,17.08-8.85Z"/>
            <path class="cls-21" d="M364,468.32l-1.62,11.76-4.06,8.27v24.58l-11.24,27.44-3.62-7.45-10.59,7.45-26.1,47.37-3.62-8-10.59,26.42,1.83,2.8,8.54,6.88-71.11,53.8-11.08-6.87V658.1l-13.51,6.82c5-7.74,8.75-14.13,10.21-17.9,23.72-9.15,58.26-23.67,58.26-23.67s10.48-36.53,19.5-52.64C306,566.64,308.44,564,308.44,564l2.71-17.76s30.91-15,35.12-18.82c6.27-29.85,10.81-45.68,10.81-45.68Z"/>
            <path class="cls-21" d="M429.92,407.93l-2.45,20L421.35,442v41.8l-17,46.66-5.47-12.67-16,12.67L343.47,611,338,597.36l-16,44.93,2.78,4.78,12.9,11.68L230.23,750.26l-16.74-11.69v-7.9l-20.41,11.61c7.51-13.17,13.23-24,15.43-30.45,35.84-15.55,88-40.24,88-40.24s15.84-62.13,29.47-89.53c16.33-6.91,20-11.44,20-11.44l4.08-30.2s46.7-25.59,53.07-32c9.47-50.78,16.32-77.68,16.32-77.68Z"/>
          </g>
          <g>
            <path class="cls-22" d="M1004.89,832.79H120l43.72-20.56s67.28-21.58,111.86-28,126.78-15.53,126.78-15.53,13.34-1.4,32.74-3.82c42-5.18,112.3-15,135.21-24.58,33.56-14.13,92.78-32.67,92.78-32.67s27.94,11.67,57.66,11.67,135.32-6.63,135.32-6.63,8.7,6.92,21.34,14.9c11,7,25,14.76,38.91,19.45,1.08.44,2.16.78,3.24,1.12,4.44,5,17,17.56,31.13,31.59,8.49,8.42,17.62,17.37,25.89,25.45C992.25,820.5,1004.89,832.79,1004.89,832.79Z"/>
            <path class="cls-23" d="M916.32,747a608.3,608.3,0,0,0-168.76,8c-118,22.75-186.44,52.17-340.94,48.54C270.93,800.37,197,812,161,832.79H120l43.72-20.56s67.28-21.58,111.86-28,126.78-15.53,126.78-15.53,13.34-1.4,32.74-3.82c78.31.58,149.37,9.24,236.21-4.84,96.35-15.58,173.14-27.44,206.1-32.47C888.44,734.57,902.43,742.31,916.32,747Z"/>
            <path class="cls-24" d="M976.58,805.16c-43.24,13.6-107.49,8.67-188.49,5.67-64-2.38-95.38,11.85-109.38,22H288.33c33.34-4.88,83.87-9.87,151.64-9.87,133.74,0,210.75-25,314.78-42.77,86.67-14.76,148.33,4.64,195.94-.44C959.18,788.13,968.31,797.08,976.58,805.16Z"/>
          </g>
        </g>
        <g>
          <g>
            <polygon class="cls-25" points="1487.51 330.02 1487.51 342.36 1482.78 365.27 1461.28 405.56 1461.28 420.97 1459.26 438.05 1436.6 512.17 1431.82 515.04 1429.6 493.09 1427.68 456.78 1430.66 419.87 1445.71 385.62 1445.66 385.62 1487.51 330.02"/>
            <polygon class="cls-25" points="1412.83 462.42 1421.54 537.2 1419.53 543.25 1413.38 528.39 1397.47 518.17 1393.29 485.08 1385.13 469.97 1382.87 440.76 1387.9 440.26 1416.15 427.97 1412.83 462.42"/>
            <polygon class="cls-26" points="1336.38 513.89 1362.47 572.05 1349.58 578.45 1340.61 572.05 1340.61 579.86 1334.22 576.78 1331.7 582.98 1324.95 587.71 1319.66 584.34 1340.36 550.8 1336.38 513.89"/>
            <polygon class="cls-27" points="1477.99 702.13 1508.87 819.67 1113.54 819.67 1165.77 742.42 1190.94 682.54 1214.46 618.78 1232.34 614.86 1272.63 570.09 1282.15 530.35 1294.84 569.23 1300.07 585.2 1326.36 609.82 1335.88 629.97 1348.17 629.97 1398.53 667.43 1403.56 692.06 1429.3 711.09 1449.44 697.65 1477.99 702.13"/>
            <path class="cls-26" d="M1540.94,347.1l14,13.69,14.81,27.2V388l-.55,13.65a278.87,278.87,0,0,1-9,65.71c-9.21,35.56-41.39,92.31-41.39,92.31l-25.74,28,5.89-26.59V521.94l-10.92.86-5.9-6.14-8.91,11.73-14-90.35,2-17.07V405.56l21.5-40.28,4.73-22.92V330l7.56,3.38,6,2.21,6,2.27,2.22-4.78,12,3.37,2.52-6.45,14.86,7Z"/>
            <path class="cls-25" d="M1581.23,428.22l19,24.93,14.8,5.29,3.38,21.55,23.21,15.67,9.52,31.92,24.63,2.77,15.1-7,32.18,7L1858,819.67H1625.5L1612.3,635l6.15-51.47-23.22,34.1-10.07,6.75-12.59-17.63-5,7.25s-3.62-36.66-3.62-47.84,8.66-132.9,8.66-132.9L1569.75,388l3.93,7.2Z"/>
            <polygon class="cls-26" points="1445.71 385.62 1430.66 419.87 1427.68 456.78 1429.6 493.09 1431.82 515.04 1428.19 517.21 1421.54 537.2 1412.83 462.42 1416.15 427.97 1429.6 406.97 1445.66 385.62 1445.71 385.62"/>
            <polygon class="cls-26" points="1365.79 442.53 1382.87 440.76 1385.13 469.97 1393.29 485.08 1397.47 518.17 1390.72 513.84 1385.94 525.32 1382.06 523.91 1368.41 557.45 1373.1 509.1 1359.95 450.63 1349.88 433.31 1338.7 382.5 1351.84 406.12 1365.79 442.53"/>
            <polygon class="cls-28" points="1305.92 368.35 1305.92 403.9 1297.4 433.31 1299.07 387.99 1300.33 386.27 1305.92 368.35"/>
            <path class="cls-29" d="M1368.41,557.45l-5.94,14.6-26.09-58.16-3.32-30.52s1.11-48.95,0-50.06,0-16,0-16l-7.55-13.75V368.35h5.33l7.86,14.15,11.18,50.81L1360,450.63l13.15,58.47Z"/>
            <polygon class="cls-28" points="1502.02 326.9 1501.06 335.61 1495.07 333.4 1487.51 330.02 1445.66 385.62 1429.6 406.97 1416.15 427.97 1387.9 440.26 1463.44 316.63 1472.71 293.11 1486.1 286.41 1506.25 241.09 1509.12 271.05 1506.2 325.64 1502.02 326.9"/>
            <path class="cls-29" d="M1671.63,481.66l19.28,41.69-15.1,7-24.63-2.77-9.52-31.92L1618.45,480l-3.38-21.55-14.8-5.29-19-24.93-7.55-33-3.93-7.2V388l-14.81-27.2-14-13.69L1538.73,337l-1.71-8.26,5.28-6.89-1.51-3.78,8.51-14.3L1544,284.1l1.66-32.34,9-10.67,14.3,26s-1,15.26,0,16.27S1580.68,313,1580.68,313l2.52,37.52,39.43,69.95Z"/>
            <polygon class="cls-28" points="1299.07 387.99 1297.4 433.31 1293.93 445.3 1282.15 530.35 1272.63 570.09 1232.34 614.86 1214.46 618.78 1190.94 682.54 1165.77 742.42 1113.54 819.67 1005.72 819.67 1053.87 746.9 1065.6 731.79 1076.23 731.79 1079.6 721.17 1134.44 661.29 1166.87 609.82 1205.5 560.01 1225.09 547.73 1276 456.48 1292.77 396.65 1299.07 387.99"/>
            <path class="cls-29" d="M1569.75,388l2.82,45.22s-8.66,121.72-8.66,132.9,3.62,47.84,3.62,47.84l5-7.25,12.59,17.63,10.07-6.75,23.22-34.1L1612.3,635l13.2,184.67H1508.86L1478,702.13l-28.55-4.48-20.14,13.44-25.74-19-5-24.63L1348.17,630h-12.29l-9.52-20.14-26.29-24.62-5.23-16,15.31,9,9.51,6.14,5.29,3.37,6.75-4.73,2.52-6.19,6.39,3.07v-7.81l9,6.4,12.89-6.4,5.94-14.6,13.65-33.54,3.88,1.41,4.78-11.48,6.75,4.33,15.91,10.22,6.15,14.86,2-6,6.65-20,3.62-2.17,4.79-2.87L1459.26,438l14,90.35,8.91-11.73,5.9,6.14,10.92-.86v39.18l-5.89,26.59,25.74-28S1551,503,1560.23,467.4a278.87,278.87,0,0,0,9-65.71Z"/>
            <path class="cls-27" d="M1533.59,605l-5.23,22.5s-22,58.19-23.66,63.66-5.23,23.9-5.23,23.9l3.52-2.81,3.58,10.45,5.9-1.82,16.33-13.26-10.53,24.24-21.8,69.06-55.72,6,2.1-61.93-13.29-6.37-11.81,3.63L1408,729.2l1.14-12.77L1390,690.77l-6-1.8-1.71-11.23L1373,661.87l-.22-8.57,6.17,6.62,3.75,4.39,2.09,2.42,4-1.32,2.13-2.66,2.68,2.43,1.14-3.81,3.44,4.44,7.23-1.24,5-6.27L1422,643.91l1.69,1.26,4-4.91,2.67,3.1,6.28,7.32.83,8.16,1.86-2.66,6.17-8.8,2.09-.52,2.76-.71,21.91-32.9-6.37,46.18L1472,655l2,3.86,5.46,1.18-5.73,19.14L1467,691.31l16.66-9.91s24-23,33.72-39a142.41,142.41,0,0,0,14-30.8Z"/>
            <polygon class="cls-25" points="1509.32 333.1 1507.1 337.88 1501.06 335.61 1502.02 326.9 1506.2 325.64 1509.12 271.05 1506.25 241.09 1554.64 241.09 1545.63 251.76 1543.96 284.1 1549.3 303.79 1540.79 318.09 1542.3 321.87 1537.02 328.76 1538.73 337.02 1523.87 330.02 1521.35 336.47 1509.32 333.1"/>
            <path class="cls-25" d="M1336.38,513.89l4,36.91-20.7,33.54-9.51-6.14-15.31-9-12.69-38.88,11.78-85.05,3.47-12,8.52-29.41V368.35h19.59V403.6l7.55,13.75s-1.11,14.85,0,16,0,50.06,0,50.06Z"/>
          </g>
          <g>
            <polygon class="cls-22" points="1826.18 575.53 1816.31 589.63 1812.33 603.22 1786.75 612.89 1826.18 575.53"/>
            <polygon class="cls-30" points="1319.66 811.11 1349.43 795.85 1398.53 792.07 1453.92 771.12 1461.28 774.9 1510.17 742.97 1559.28 696.84 1567.23 698.91 1625.14 659.48 1685.58 626.34 1692.58 640.99 1725.61 671.11 1739.61 734.61 1736.24 744.38 1718.61 765.38 1723.1 769.31 1660.95 795.6 1645.59 808.74 1622.12 819.67 1288.94 819.67 1308.33 811.11 1319.66 811.11"/>
            <polygon class="cls-12" points="1915.37 767.75 1928.81 793.33 1925.24 819.67 1897.09 819.67 1832.07 783.01 1811.93 752.64 1799.34 750.12 1776.22 716.53 1767.86 676.25 1735.13 660.33 1706.07 640.64 1734.27 638.38 1786.75 612.89 1812.33 603.22 1816.31 589.63 1826.18 575.53 1839.83 542.94 1861.03 634.1 1866.07 696.59 1861.23 717.19 1878.86 732.29 1907.61 748.01 1915.37 757.68 1915.37 767.75"/>
            <polygon class="cls-23" points="1271.52 783.01 1200.46 803.4 1169.14 803.4 1155.14 819.67 1038.2 819.67 1053.87 802.29 1061.42 803.4 1086.6 764.27 1126.03 733.76 1132.78 708.02 1152.32 720.86 1187.57 730.68 1232.34 760.9 1251.38 768.15 1271.52 783.01"/>
            <polygon class="cls-23" points="1735.13 660.33 1767.86 676.25 1776.22 716.53 1799.34 750.12 1811.93 752.64 1832.07 783.01 1897.09 819.67 1622.12 819.67 1645.59 808.74 1660.95 795.6 1723.1 769.31 1718.61 765.38 1736.24 744.38 1739.61 734.61 1725.61 671.11 1692.58 640.99 1685.58 626.34 1690.91 626.34 1696.1 633.89 1706.07 640.64 1735.13 660.33"/>
            <polygon class="cls-23" points="1795.76 584.14 1798.28 573.46 1801.65 554.33 1811.07 530.35 1811.07 522.25 1789.27 502.71 1790.73 496.21 1779.4 466.45 1774.56 457.08 1778.74 457.08 1791.08 474.4 1796.37 476.92 1801.4 475.26 1827.74 485.33 1841.49 514.44 1836.25 520.58 1839.83 542.94 1826.18 575.53 1786.75 612.89 1734.27 638.38 1751.04 616.01 1795.76 584.14"/>
            <polygon class="cls-23" points="1841.49 514.44 1864.91 564.2 1871.1 601.97 1901.32 656.55 1925.34 672.22 1997 819.67 1925.24 819.67 1928.81 793.33 1915.37 767.75 1915.37 757.68 1907.61 748.01 1878.86 732.29 1861.23 717.19 1866.07 696.59 1861.03 634.1 1839.83 542.94 1836.25 520.58 1841.49 514.44"/>
            <polygon class="cls-22" points="1132.78 708.02 1126.03 733.76 1086.6 764.27 1061.42 803.4 1053.87 802.29 1038.2 819.67 990.92 819.67 1046.56 769.86 1054.12 772.38 1105.64 727.06 1119.59 721.17 1132.78 708.02"/>
            <polygon class="cls-22" points="1779.4 466.45 1790.73 496.21 1789.27 502.71 1811.07 522.25 1811.07 530.35 1801.65 554.33 1798.28 573.46 1795.76 584.14 1751.04 616.01 1734.27 638.38 1706.07 640.64 1696.1 633.89 1690.91 626.34 1685.58 626.34 1625.14 659.48 1567.23 698.91 1559.28 696.84 1510.17 742.97 1461.28 774.9 1453.92 771.12 1398.53 792.07 1349.43 795.85 1319.66 811.11 1308.33 811.11 1288.94 819.67 1155.14 819.67 1169.14 803.4 1200.46 803.4 1271.52 783.01 1472.4 730.94 1485.3 706.36 1566.43 666.88 1574.53 657.66 1582.64 662.4 1619 634.14 1663.22 572.05 1674.4 564.5 1690.91 542.94 1706.27 537.2 1713.27 524.46 1745.2 502.66 1769.22 476.92 1774.56 457.08 1779.4 466.45"/>
          </g>
        </g>
      </g>
    </g>
  </g>
</svg>
